<?xml version="1.0" encoding="utf-8"?>
<!-- Generator: Adobe Illustrator 22.1.0, SVG Export Plug-In . SVG Version: 6.00 Build 0)  -->
<svg version="1.1" id="Livello_1" xmlns="http://www.w3.org/2000/svg" xmlns:xlink="http://www.w3.org/1999/xlink" x="0px" y="0px"
	 viewBox="0 0 61.2106 60.83014" style="enable-background:new 0 0 61.2106 60.83014;" xml:space="preserve" class="logo">
   <path class="hexagon" d="M49,20.1L38.4,1.8C37.8,0.7,36.5,0,35.3,0H14.2c-1.2,0-2.5,0.7-3.2,1.8L0.5,20.1C0.2,20.6,0,21.3,0,21.9
                              c0,0.7,0.2,1.3,0.5,1.8L11,42c0.6,1.1,1.9,1.8,3.2,1.8h21.1c1.2,0,2.5-0.7,3.2-1.8L49,23.7c0.3-0.5,0.5-1.2,0.5-1.8
                              C49.4,21.3,49.3,20.6,49,20.1z M45,21.9c0,0.3-0.1,0.6-0.2,0.8l-9.3,16.1c-0.3,0.5-0.9,0.8-1.5,0.8H15.4c-0.6,0-1.2-0.3-1.5-0.8
                              L4.6,22.8c-0.1-0.2-0.2-0.5-0.2-0.8s0.1-0.6,0.2-0.8L13.9,5c0.3-0.5,0.9-0.8,1.5-0.8H34c0.6,0,1.2,0.3,1.5,0.8l9.3,16.1
                              C44.9,21.3,45,21.6,45,21.9z"/> 
<path d="M60.84631,2.79103C61.72549,1.6522,60.91372,0,59.47501,0h-0.7416H31.21864H1.73239C0.77562,0,0,0.77562,0,1.73239v38.76363
	v18.60172c0,0.95677,0.77562,1.73239,1.73239,1.73239h14.30795h43.43374c1.43792,0,2.24991-1.65061,1.37234-2.78968
	L39.54185,30.38753L60.84631,2.79103z M6.22018,4.19345h17.64424c1.68252,0,2.63239,1.93163,1.60514,3.26415L7.82533,30.34524
	c-1.18089,1.53182-3.63188,0.69674-3.63188-1.23742V6.22018C4.19345,5.10085,5.10085,4.19345,6.22018,4.19345z M4.19345,54.60995
	v-11.9946c0-0.44772,0.14825-0.88283,0.4216-1.23741L32.67226,4.98277c0.38372-0.49775,0.97665-0.78933,1.60514-0.78933h16.0634
	c1.68316,0,2.63285,1.93292,1.6043,3.26525L14.58857,55.84846c-0.38376,0.49711-0.97629,0.78823-1.6043,0.78823H6.22018
	C5.10085,56.63669,4.19345,55.72929,4.19345,54.60995z M50.35123,56.63669h-26.9485c-1.68316,0-2.63285-1.93292-1.6043-3.26525
	l13.48793-17.47149c0.81185-1.05162,2.39899-1.05084,3.20981,0.00158l13.46057,17.47149
	C52.98342,54.70563,52.03346,56.63669,50.35123,56.63669z"/>
</svg>
