<svg xmlns="http://www.w3.org/2000/svg" width="7508.229" height="7272.252" viewBox="0 0 7508.229 7272.252">
  <g id="zen-brush-symbol" transform="translate(7509.709 6048.672) rotate(169)">
    <g id="Group_343" data-name="Group 343" transform="translate(0 7.761)">
      <path id="Path_1040" data-name="Path 1040" d="M5217.961,1673.644c15.078,29.059-12.712,27.847,10.173,62.041,6.558-18.751,21.29,9.808,30.636,10.885C5257.81,1733.993,5240.1,1682.8,5217.961,1673.644Zm399.133,1100.992c9.155,8.847,8.693,28.694,6.712,48.521-2.365,19.866-4.615,39.6,4.231,48.752-13.193,15.962-16.578,1.462-16.02-21.866.1-11.655,1.9-25.617,2.77-39.1C5615.652,2797.522,5616.46,2784.483,5617.094,2774.636Zm-192.585-760.131c13.212.827,26.29,17.693,38.156,40.636,10.693,23.328,19.251,53.041,25.828,78.5-10.346-18.674-20.578-38.5-30.712-58.791C5447.914,2054.469,5435.413,2034.68,5424.509,2014.506Zm-4356.641-637.24c10.308-16.9-5.135,2.289-5.02-5.135,38.059-48.041,71.1-82.5,90.889-94.043-8.212,11.9-31.328,42.156-54.618,70.6-11.828,14.1-23.309,27.963-32.367,39.425-9.308,11.308-16.982,19.5-21.251,22.02-8.443,13.039-3.1,12.174-2.327,15.943-11.443,14.712-22.309,28.674-32.732,42.079-10.347,13.52-19.116,27.271-28.328,40.406-17.866,26.5-35.5,51.6-52.079,78.465.4-20.174,27.578-58.907,53.579-96.485,12.731-19,26.982-36.56,37.694-51.445,10.674-14.924,18.078-27.021,18.962-33.963C1052.08,1390.266,1061.311,1380.958,1067.869,1377.265Zm-135.987,211.49c5.193,1.365-21.636,41.713-29.886,59.368-9.154,2.1-7.962,5.789-22.559,15.674C902.861,1621.565,913.746,1615.949,931.882,1588.756Zm726.667,3460.215c16.789,1.846,67.792,46.194,99.1,63.445C1730.4,5107.339,1697.744,5076.953,1658.549,5048.971ZM766.278,1872.384c-.288,7.981-8.673,27.117-17.924,48.771-8.5,22-18.424,46.271-24.078,63.542-2.75-2.846-5.558-5.481-11.385,8.731-3.539-11.885,12.174-25.424,18.828-49.926-1.577,18.059,2.616,6.481,9.116-12.808C746.777,1911.136,758.162,1885.058,766.278,1872.384ZM2422.411,5430.642c36.675,1.1,56.118,17.289,101.486,23.77,9.731,9.462-41.752.9-4.9,13.328C2491.164,5468.413,2464.836,5440.873,2422.411,5430.642ZM836.82,1697.7c.1-15.4,26.6-43.329,44.425-82.292,1.077,7.4-6.423,21.79-16.116,37.329-4.846,7.75-10.27,15.808-15.443,23.482C844.743,1683.991,840.378,1691.51,836.82,1697.7Zm69.715-146.8c6.981-11.058,7.75-6.827,10.827-8.289,12.866-20.116,12.558-25.732,26.424-47.06C955.825,1495.655,882.668,1600.622,906.535,1550.908ZM706.468,1974.869c-3.154,15.1-8.943,33.213-14.847,49.252-5.962,16-10.577,30.424-13.9,37.29-3.115,6.943-4.1,6.577-.6-6.269,1.9-6.385,4.4-16.116,9.231-29.251C691.467,2012.852,698.083,1996.063,706.468,1974.869ZM614.81,2267.921c1.615-25.328,23.77-78.754,25.309-104.216C660.293,2116.741,621.445,2259.363,614.81,2267.921Zm-26.1,117.159c2.635,2.75-.423,17.155-3.827,31.886-2.981,14.847-7,29.982-8.385,33.732-.942-7.462-1.885-15.1-5.443-15.635C576.1,2408.332,582.116,2411.485,588.712,2385.081ZM2466.144,5460.7c20.885,5.712,41.81,11.423,62.907,17.212,8.962,14.847-41.175-5.558-65.618-10.577ZM1769.554,658.675l-2.654-5.885a267.182,267.182,0,0,1,25.905-16.616c6.9-3.462,12.751-6.058,20.732-10.424C1812.037,631,1795.094,641.867,1769.554,658.675Zm122.486,4577.246c-16.6-.442-73.215-38.848-104.159-57.233,7.6-.289,28.251,10.539,49.925,22.751C1859.809,5213.113,1882.329,5227.133,1892.041,5235.921Zm-779.593-4003.2c-3.866,15.751-35.252,45.1-49.214,64.368,12.251-28.29,7.154-20.693-9.981-10,8.693-8.385,20.443-22.578,34.636-41.425C1078.6,1277.915,1077.562,1267.51,1112.448,1232.72ZM4215.589,394.952l-38.963-13.828,3.635-5.269C4198.338,383.72,4229.82,394.759,4215.589,394.952ZM2097.781,464.4c-3.231-2.4,16.885-15.078,37-25.386,20.6-9.27,41-16.289,37.251-9.616-7.212,4.212-18.231,9.347-31.309,14.981C2127.782,450.416,2112.916,457.339,2097.781,464.4Zm-147.353,68.638c4.789-8.193,29.444-22.347,55.695-35.117,26.482-12.27,55.137-21.674,66.445-23.886a601.774,601.774,0,0,1-58.079,28.367C1997.815,510.3,1979.968,518.15,1950.428,533.035Zm401.134,4929.9c-14.712-5.924-28.578-11.809-44.252-17.789-7.866-2.865-16.135-5.9-25.116-9.193-8.9-3.52-18.559-7.135-29.328-10.885,8.5-1.442,30.059,5.558,51.675,12.328C2325.926,5444.681,2346.5,5454.489,2351.562,5462.932ZM2638.421,277.6c-8.116-.346-4.577-2.539,6.52-5.827,11.193-2.75,30.04-6.327,52.368-10.385,22.309-4.039,48.079-8.673,73.272-13.231,25.213-4.173,50-7,69.888-10.577-13.193,3.731-30.444,7.116-49.387,10.231-18.962,2.808-39.329,7.654-59.234,10.981C2692.1,266.273,2654.575,271.984,2638.421,277.6Zm955.813-49.31c32.213,6.462,35.559,6.693,94.562,16.385C3713.989,249.368,3570.059,233.54,3594.233,228.29ZM2272.25,384.663c7.962-9.308,8.27-6.962-1.865-9.962,8.924-1.385,89.619-28.078,26.6-5.116C2315.945,365.989,2307.771,372.451,2272.25,384.663ZM1203.106,1112.446c-12.6,13.02-24.059,26.905-35.828,40.925,9.385-19.539,15.828-25.424,1.365-19.5C1185.009,1116.965,1203.163,1102.311,1203.106,1112.446Zm365.267-346.977c-1.981,6.423-54.079,43.233-64.811,49.291-14,1.25,40.309-36.617,61.945-55.272C1569.334,760.968,1549.621,778.988,1568.372,765.468Zm817.4-439.4c18.539-11.539,51.714-12.6,92.273-27.347C2493.607,297.159,2404.756,325.2,2385.775,326.064Zm-13.347,2.231c9.9-1.423-56.676,21.251-105.466,37.175-24.559,7.558-43.714,16-47.464,16.635-3.5,1.423,8.385-5.193,48.983-19.366C2270.6,362.027,2371.389,328.641,2372.428,328.295ZM1423.385,864.781c-27.886,27.155-28.174,20.847-52.464,43.444.308-3.731,17.751-18.212,29.674-29.194.885-3.289-5.154,1.789-11.52,7.231C1397.057,870.531,1424.077,859.107,1423.385,864.781ZM1905,524.092c18.578-13.712,3.616-6.423-16.52,3.635-19.866,10.558-44.233,24.982-46.194,22.386,10.02-7.058,23.04-14.731,38.059-23.02,15.4-7.693,32.944-15.693,51.579-24.386s38.406-17.962,58.349-27.867c19.885-10.1,40.983-18.712,60.887-29.194-4.693,6.712-29.982,18.1-59.176,33.059C1962.89,493.9,1928.927,510.726,1905,524.092Zm-557.16,398.787c-8.962-1.692,14.231-23.4,1.731-22.616,25.924-21.136,54.368-45.329,56.541-38.021C1331.515,920.706,1407.788,867.608,1347.843,922.879Zm863.174-572.353c44.387-24.617-10.02-.25-2.808-14,31.194-13.616,29.04-7.616,66.061-22.155-29.059,13.366-18.251,17.5,28.194,2.808,13.962-2.365-2.9,3.5-26.309,11-11.731,3.712-25.059,7.923-37.021,11.712C2227.4,344.353,2217.075,348.257,2211.017,350.527Zm-13.193,3.192c-10.058,9.1-66.637,26.713-78.042,29.213-8.154-1.519,24.04-12.751,24.463-16.366C2184.881,349.18,2151.226,374.566,2197.824,353.719Zm3079.121,792.132c-5.039-10.077-10.4-20.309-22.809-34.6,9.75-16.078,36.733,15.443,56.388,26.636,6.5,12.847-.173,17.924,18.828,37.925C5313.831,1171.391,5289.445,1141.947,5276.945,1145.851ZM602.713,1963.734c-1.577-10.731,28.886-80.773,35.175-90.581C641.83,1889.615,617.348,1924.886,602.713,1963.734ZM1428.308,793.3c-13.77,19.27-90.273,77.561-56.253,39.925C1391.9,818.721,1389.922,828.933,1428.308,793.3Zm-731.879,938c5.116-17.789-3.443-3.462-13.1,11.635-8.943,15.462-19.02,31.675-19.212,16.424,3.4-7.443,6.9-15.02,10.4-22.655l12-22.213c8.116-14.751,16.424-29.213,24.674-42.79,16.635-27.059,32.021-51.1,46.983-65.6-9.5,18.962-17.943,35.829-27.6,55.1C720.757,1680.471,709.679,1702.126,696.429,1731.3ZM2246.865,317.467c-36.963,10.674-67.33,20.328-118.678,40.29C2155.5,342.68,2241.941,311.236,2246.865,317.467ZM1709.782,550.651c-10.731,14.9.846,5.212,4.885,12.02C1657.126,600.307,1655.857,585.768,1709.782,550.651ZM1418.115,747.987c14.193-19.732,40.617-27.078,47.733-29.232,2.6-5.212,51.868-48.906,18.135-25.463,27.636-33.694,10.154,4.519,48.541-27.79l4.866,9.847c-26.136,17.02-43.6,30.213-56.656,39.309-13.058,9.116-21.463,14.443-27.79,18.02C1440.213,739.736,1435.674,739.583,1418.115,747.987ZM5323.024,1057.77c-16.9-19.174-14.54-26.751-33.982-45.637,7.289.385,16.52,5.193,26.924,12.827,10.116,7.9,21.039,19.02,32.6,31.271C5324.139,1043.5,5347.448,1070.463,5323.024,1057.77ZM2110.3,340.911c-12.347,10.174-54.887,23.963-77.542,34.444C2040.144,364.316,2092.185,344.315,2110.3,340.911ZM1091.408,1061.655c-15.5,12.424-49.291,54.252-52.291,46.367,38.348-45.714,53.81-57.541,88-91.677-.423,4.693-27.463,33.059-29.328,30.886C1088.735,1057.828,1092.351,1057.866,1091.408,1061.655Zm606.97-539.005q8.452-6.346,17.155-12.9c5.962-4.019,11.981-8.116,18.02-12.174,12.078-8.135,24.29-16.347,36.367-24.443,21.982-6.366,61.541-28.328,105.909-49.348,43.925-21.943,90.062-47.887,123.717-64.753,5.346,2.673,23.52-4.539,47.771-15.174,12.116-5.327,25.828-11.366,40.1-17.616,14.6-5.5,29.886-10.962,44.906-15.732C1991.1,373.7,1852.443,431.165,1698.378,522.65Zm784.363-340.362c-25.559,12.674-61.311,12.943-55.964,5.616C2477.913,172.1,2451.278,189.558,2482.741,182.288Zm-260.954,72.119c-28.155,10.616-35.694,12.174-53.868,18.27-5.077-2.962,38.1-17.328,38.925-21.693C2225.5,245.387,2218.979,252.176,2221.787,254.407Zm-107.813,37.309c-32.271,19.366-60.483,20.52-93.447,35.444,13.154-13.828,33.348-22.424,51.695-27.905C2090.781,294.37,2107.647,292.909,2113.974,291.716ZM1350.4,743.506c17.232-12.424,51.272-31.059,56.176-45.079,27.174-17.982,8.424.75-14.751,20.116C1368.209,737.39,1342.151,759.468,1350.4,743.506Zm745.861-466.617c-20.6,7.808-46.444,19.77-74.7,32.348-28.347,12.366-58.964,25.636-88.081,38.309-57.291,27.27-110.14,49.5-129.063,52.829,57.214-21.443,143.564-73.888,198.432-85.465,14.116-6.827,7.885-7.962,25.54-15.885C2069.606,279.619,2064.395,288.543,2096.261,276.889ZM5319.293,774.853c29.347,14.366,58.118,34.828,90.369,60.1,16.059,12.77,32.752,26.944,50.194,42.829,17.655,15.674,34.194,34.79,52.483,54.983-14.5-11.25-29.463-23.693-44.771-36.963-15.654-12.847-31.982-26.174-48.6-39.79-16.328-13.693-32.963-27.655-49.522-41.521-8.25-6.885-16.52-13.789-24.713-20.578C5336.2,787.469,5327.678,781.1,5319.293,774.853ZM1434.347,629.732c18.309-17.539,52.6-41.156,83.965-62.714,15.789-10.635,31.1-20.366,43.983-27.713,12.9-7.231,23.809-11.327,29.848-12.212-20.789,12.039-47.194,30.136-75.465,48.271-14.116,9.116-28.559,18.424-42.6,27.482-7.02,4.5-13.943,9.02-20.732,13.328C1446.809,620.846,1440.443,625.385,1434.347,629.732Zm240.742-165.1c-36.079,23.463-49.271,20.982-61.7,38.944-36.829,21.116,13.981-15.212-4.25-9.924C1643.933,473.147,1679.474,452.012,1675.089,464.628Zm-91.927,5c31.963-20.9,73.753-37.906,88.889-52.483,13.289-5.116,14.174-3.981,8.077.4-6.193,4.25-19.212,12.02-33.367,20.924C1618.125,455.82,1583.008,474.744,1583.161,469.628ZM1375.652,611.577c-27.655,20.289-55.906,41.156-51.56,28.463C1343.112,628.731,1377.883,601.211,1375.652,611.577ZM356.375,2011.833l-14.962,42.329c-4.9,14.116-8.731,28.617-13.193,42.964-6.27,4.77-2.846-9.808,3.077-29.348,6.058-19.52,16.212-43.406,20.462-58.272A47.13,47.13,0,0,1,356.375,2011.833ZM1770.535,345.142c-50.945,34.328-74.5,40.348-130.083,71.1,35.809-27.905,72.426-39.29,115.736-67.868C1754.938,351.854,1760.285,350.373,1770.535,345.142ZM894.553,1051.385c-19.116,24.982-25.982,29.482-39.213,44.656,5.885-10.558,6.539-16.481,3.135-18.635,22.155-28.674,22.809-22.5,49.733-55.368C905.4,1030.384,897.419,1043.039,894.553,1051.385Zm311.591-322.015c-27.751,27.54-18.058,7.77-26.309,13.924-52.041,41.906-85.6,75.542-108.678,98.793-22.77,23.636-37.04,35.213-53.5,31.386-3.116-.635-20.655,18.309-33.059,30.405,37.386-42.156,60.772-62.964,86.5-84.215,26.578-20.482,55.1-41.848,102.562-85.888,8.693,1.327,24.463-3.866,74.6-48.675C1256.224,686.349,1206.76,722.774,1206.144,729.371ZM425.532,1742.705c-4.885,5.866-12.712,19.866-20.02,35.713-7.077,15.924-14.5,33.329-20.559,45-12.866,33.194,6.962,14.309-14.27,61.041,5.693-39.367-9.75,12.808-25.54,37.252.385-17.674,16.039-52.156,34.021-93.447,9.289-20.539,18.751-42.983,29.213-65.157,10.75-21.982,21.193-44.271,30.1-65.542,7.308-10.693,9.693-4.481,19.27-23.328,4.731,15.885-18.135,69.715,12.385,26.1-7.25,10.981-16.674,29.328-27.617,53.079-6.77-12.693-26.174,19.885-56.695,87.715C383.684,1832.478,412.4,1771.283,425.532,1742.705ZM289.718,2144.992c-14.539,42.675-.923-16.1-9.5-4.212,10.02-24.29,17.847-56.291,25.6-86.1,8.808-29.444,18.02-56.5,28.1-71.138-.25,18.27-10.9,47.695-21.155,78.234C303.18,2092.567,292.718,2124.069,289.718,2144.992Zm270.724-654.472c-12.827,17.751-23.078,37.906-34.905,61.657-11.962,23.732-25.6,51.079-44.06,84.138l-10.154-7.116c18.27-33.751,35.232-63.484,50.1-87.292,7.481-11.924,14.366-22.386,20.751-31.1A184.738,184.738,0,0,1,560.442,1490.521ZM1782.709,5723.848c-68.907-47.637-146.257-71.734-186.72-111.562,33.559,17.981,77.234,38.579,113.717,58.561C1746.707,5689.98,1777.17,5707.654,1782.709,5723.848ZM160.924,2672.555c.192,40.714-2.769,78.062-6.943,118.967-2.423,40.944-5.5,85.446-7.327,139.948-2.019-28.54-.385-73.042,1.981-120.486C151.6,2763.559,158.366,2713.307,160.924,2672.555ZM1271.667,5373.5c45.906,29.059,44.925,51.156,57.637,51.271,31.809,31.771-28.424-7.962-55.156-32.117C1266.82,5382.851,1266.589,5376.832,1271.667,5373.5Zm-242.146-217.183c32.848,31.328,28.136,38.232,60.945,69.407-26.54-18.847-38.1-14.77-44.483-2.9,27.29,27.386,37.771,31.271,60.945,50.194-13.27-25.809,44.1,19.616,8.423-27.54,16.058,14.866,32.078,29.6,36.886,28.828,37.5,40.694-75.311-20.443,10.424,53.426-43.675-25.924-84.081-63.253-123.275-79.37,28.694,12.174-5.039-44.387-27.674-77.792C1057.214,5202.15,1022.04,5167.3,1029.521,5156.322Zm-513.5-675.512c-32.155-43.848-33.271-37.328-37.829-17.924-20.174-56.676-.846-38.271-16.578-92.6,11.616,15.347,21.4,36.521,31.021,56.657C502.324,4447.02,510.382,4466.906,516.017,4480.81ZM135.057,2945.24c-10.654-20.693,2.9-62.618,4.558-106.986C150.673,2862.794,133.653,2877.968,135.057,2945.24Zm1190.3,2506.248c-30.04-28.367-50.06-37.444-71.984-48.675-21.636-11.539-46.521-23.674-81.6-62.426,7.6-4.25,29.809,13-2-19.424,7.039.077,30.886,24.559,49.233,39.29-17.347-8.27-20.02-6.192-9.731,9.1C1227.645,5372.639,1330.8,5429.584,1325.361,5451.489ZM1650.049,359.258c-4.577,6.808-63.464,38.983-89.639,56.637,7.462-7.154,28.732-20.386,23.251-21.886,12.424-7.135,18.828-9.289,27.136-13.039C1619.144,377.259,1629.144,371.528,1650.049,359.258ZM6138.311,4379.132c-29.386,39.06-39.194,63.176-49.617,91.427-5.308,14.02-10.193,29.367-18.731,47.444a640.32,640.32,0,0,1-37.04,65.6c-.77-9.077,3.52-23,18.212-46.925-20.231-.115-39.944,65.5-57.791,78.657,8.192-32.828,38.213-87.715,67.445-137.506C6089.578,4427.846,6120.906,4384.46,6138.311,4379.132ZM804.549,1062.309c8.366-15.924,23.674-38.059,32.386-54.349,16.462-15.443,17.078-11.366,8.866,1A397.265,397.265,0,0,1,804.549,1062.309ZM462.207,4452.79c40.983,79.139,143.083,230.684,168.142,299.033-20.828-35.271-35.559-48.021-62.484-90.639-2.731,5.52,7.289,26.405,27.713,56.041-8.808,2.558-33.5-42.079-55.291-77.407,25,19.155,8.75-14.308-15.962-58.675C500.766,4535.986,470.611,4478.56,462.207,4452.79Zm1429.68,1391.66c-21.039-7.231-44.156-16.193-68.965-26.482-24.482-10.847-50.175-24.04-77.254-37.867-26.79-14.308-55.637-28.232-83.619-45.656-28.213-17.135-57.08-35.06-86.235-53.464-29.54-17.77-57.6-38.944-86.235-58.964-14.231-10.173-28.463-20.385-42.637-30.5-14.25-10.02-28.174-20.366-41.521-31.291-54.06-42.867-106.7-83.869-151.815-124.621,92.35,68.772,197.855,137.468,305.552,208.106C1668.877,5711.116,1780.786,5781.081,1891.887,5844.449ZM984.865,854.761c-20.52,14.981-63.811,62.56-60.426,45.521C956.479,867.762,970.922,861.7,984.865,854.761ZM256.217,3980.46c5.693,22.271,7.1,38.656,13.962,60.618-5.269-7.4-10.385-14.231-14.154-12.847C250.2,4001.75,244.947,3975.306,256.217,3980.46ZM158.616,2304.9c7.27-26.29,12.885-32.828,17.385-26.309-15.058,49.214-8.923,50.5-1.423,48.656-7.77,20.309-19.193,36.136-18.1,9.731C170.713,2281.46,169.963,2300.576,158.616,2304.9ZM754.566,1097.7c-14.731,13.6-23.578,22.77-31.828,32.521-8.423,9.616-16.443,19.635-28.867,35.5-20.424,21.559,8.827-28.617-26.924,16.4-21.693,37.925-57.041,89.081-88.177,126.929,8.077-18.424,36.059-60.041,63.984-98.1,28.578-37.636,55.137-73.177,55.964-83.427,5.866-4.5,14.4-13.981,22.616-22.867,8.577-8.673,17.02-16.751,21.9-19.078,4.808-10.02,22.136-33.848,41.637-58.387,9.731-12.27,20.02-24.694,29.559-35.656a365.63,365.63,0,0,1,26.232-25.924c-5.077,9.193-22.213,28.251-16.193,28.367-31.944,21.059-57.945,77.369-98.889,117.275C721.43,1130.562,753.951,1086.233,754.566,1097.7ZM3041.055,6158.251c-16.712,6.828-60.7,2.865-110.6-2.365-24.924-3-51.464-5.385-76.677-9.5-25.213-4.1-49.329-7.731-69.772-10,16.462-1.634,34.482-1.366,53.81.1,19.289,1.9,39.982,3.942,61.772,6.078C2943.185,6147.059,2991.167,6154.829,3041.055,6158.251ZM4837.117,5770c-19.6-2.6,280.936-171.969,83.254-52.06C4887.7,5737.963,4882.2,5748.983,4837.117,5770ZM102.556,3342.335c4.654,32.54,2.4,41.079,3.769,62.368-5.077-8.231-9.6-23.366-14.674-31.251C91.613,3350.2,98.44,3350.913,102.556,3342.335Zm-17.02-513.792c5.577,12.462-3.154,87.254-2.866,124.563C72.4,2936.99,83.824,2874.468,85.536,2828.543ZM1676.185,299.14c77.33-38.886,68.542-41.31,135.91-70.061-10.328,6.27-42.29,24.213-72.676,40.271C1709.686,286.62,1681.262,301.659,1676.185,299.14Zm-1290,1363.831c-10.943,14.27-30.117,56.368-35.175,50.6,30.271-59.349,52.137-111.928,20.539-60.176,7.308-26.713,13.308-31.444,20.52-36.944,7.058-5.577,15.732-11.712,29.559-40.81C414.781,1604.18,391.05,1633.585,386.184,1662.971Zm44.771-99.389c-15.558,12.058,22.366-45.386,6.77-33.194,14.866-27.675,26.078-50,37.367-68.1,11.174-18.174,20.751-33.1,30.04-47.175,9.4-14.02,18.385-27.309,28.444-42.252,5.077-7.4,10.424-15.212,16.289-23.771,6.154-8.27,12.828-17.231,20.232-27.155C518.9,1412.075,478.457,1475.943,430.955,1563.582ZM171.751,2210.4c7.481-46.464,19.386-77.215,32.5-103.543-2.9,16.02-8.847,42.386-15.347,64.426C183.156,2193.533,177.1,2211.592,171.751,2210.4ZM989.865,810.913c-25.02,25.386-50.695,50.637-75.484,76.523-14.635,1.519,49.329-54.1,72.984-80.427C988.154,808.355,989.115,809.547,989.865,810.913ZM1452.5,431.569c-33.136,23.309-34.713,18.135-41.771,17.962,25.655-17.174,50.637-34.982,76.619-51.387-1.25,3.308-22.751,16.9-37.579,27.444C1450.771,427.549,1451.694,429.511,1452.5,431.569Zm-248.03,180.3c-15.578,15.885-54.137,48.521-85.081,74.869-30.636,26.732-55.656,45.194-47.81,28.174,18.385-13.6,37.521-28.809,59.195-45.791C1152.95,652.656,1177.162,633.924,1204.471,611.865ZM1552.948,357.95c-3.865-2.692,45.733-29.982,65.022-41.329-1.962,3.077-12.751,9.443-11.885,11.385,27.366-14.231,41.867-23.482,38.944-26.193,36.213-21.539,28.636-10.866,55.137-25.367C1654.492,311.6,1607.97,324.929,1552.948,357.95ZM79.055,3388.934c3.269,1.058,5.308,17.693,7.135,37.483,2.5,19.751,5.289,42.6,8.212,56.272-3.962-.077-8.5-18.424-11.924-39.271A267.127,267.127,0,0,1,79.055,3388.934Zm-3.231,300.494c5.673,10.655,11.1,38.079,17.751,68.58,7.385,30.29,15,63.926,21.982,87.485-6.366-14.558-13.1-34.656-19.943-56.5-3.327-10.943-6.789-22.289-10.231-33.617-3-11.423-5.981-22.809-8.789-33.655C82.689,3726.987,79.459,3708.813,75.824,3689.428Zm-62.541-476c-3.5,28.117,5.019,46.887,2.115,79.831C9.186,3279.7,8.09,3241.677,4.878,3213.1,7.648,3212.983,10.513,3213.329,13.282,3213.426ZM9.936,2814.2c-1.75-26.059.4-52.425,2.885-78.984,2.519-26.617,5.866-53.445,9.27-80.388-.135,22.386-1.365,50.291-3.654,78.542C16.225,2761.655,12.59,2790.233,9.936,2814.2Zm-4.154,79.677c2.769,9.058,1.4,34.1.269,62.349-.385,28.29-1.308,59.772-.481,81.542C-1.891,3046.764-1.891,2936.529,5.782,2893.873ZM72.074,2356.31c-6.058-3.846,5.289-54.118,16.693-94.927C94.613,2265.652,79.689,2314.827,72.074,2356.31Zm5583.965,144.93c-4.423,30.54-1.847-30.155-12.1-36.175-16.578,2.4-21.193,23.943-22.77,49.887-.943,13-.461,27.04-1.558,40.559-1.25,13.52-2.827,26.405-5.808,36.694,23.29,14.9,3.347-47.925,23.27-39.1-1.961,44.964-8.442,53.156,9.635,98.254-10.462,4.4-18.6-1.077-25.655-10.712-5.558,7.943-7.6,20.462-6.808,35.348.846,14.866,2.693,32.367,7.673,49.925-3.5-12.962-6.5-25.424-9.059-37.521-2.788-12.058-6.115-23.6-8.5-34.925a634.727,634.727,0,0,1-10.885-64.6c-1.211-10.289-2.115-20.443-2.827-30.521-1.1-10-2.192-19.828-3.231-29.578-2-19.578-3.308-38.963-4.539-58.6-1.634-19.6-1.442-39.848-4.75-60.1-2.712-20.347-5.9-41.386-9.962-63.5-6.9-44.579-22.79-92.12-45.636-146.564,14.616-2.846,9.6-29.1-4.808-66.1-13.924-37.136-32.251-86.427-46.6-135.583a395,395,0,0,1-11.962-67.5c-1.577-18.462-3.327-33.155-5.4-48.156a177.032,177.032,0,0,0-13.6-47.118,248.734,248.734,0,0,0-39.963-62.272,65.932,65.932,0,0,0-25.924-15.4c17.4,38.559,63.234,118.909,58.08,176.1-5.654-13.135-10.827-19.135-15.674-20.155a296.3,296.3,0,0,0-3.711-51.483c-8.423-8.289-17.328-22.809-26.5-42.175-14.212-29.444-19.731,21.193-36.329-24.04-20.981.327,10.27,42.117,10.693,61.791-10.9-4.866-14.078-16.366-18.828-29.848-4.674-13.481-9.693-29.674-21.982-44.579,5.692-15.289,21.059-20.039,43.771,6.462-2.461-44.6-23.559-89.869-68.5-144.526l13.251-7.27c-20.116-37.271-55.08-67.042-46.387-16.616,20-9.923,26.136,7.27,32.425,34.578,3.154,13.674,6.308,29.828,11.308,46.5,5.058,16.6,10.25,34.675,20.059,50.964-22-13.251-9.654,39.406-12.077,59.445-9.289-1.711-4.865-9.443-12-20.943-11.27,15.443-8.366,40.1,16.981,70.946-5.211,4.289-10.789-.039-16.885-7.693-6.423-7.443-13.25-18.309-19.847-27.655,12.808-12.231-4.154-39.271-26.463-66.2,9.616-2.808,11.059-20.962,5.692-39.271-5-18.5-14.712-38.232-23.636-45.656-10.943-20.9,23.174,9.77-10.635-35.271,22.059,17.27,39.521,7.02,68.022,59.618,7.308-7.558-28.213-46.195-13.116-48.291-19.039-33.751-27.943-16.4-48.829-56.887,24.482,16.27,19.616-5.27-8.462-37.713,17.4,7.923,25.713-9.1,26.021-15.732,5.519-7.865,48.252,52.829,24.54,43.406,14.731,20.635,24.905,14.02,39.867,34.809-22.886-33.367-19.251-60.291,19.712-25.1-27.271-38.348-50.714-43.56-75.311-58.1-12.347-33.175-24.6-42.521-38.213-50.521-13.366-8.231-29-14.539-48.81-41.906,6.192-19.251,25.174,4.193,43.541,30.963-6.923-31.694,28.194-3.116,44.56,1.673,1.654-5.616-7.885-15.347-18.789-22.6-10.943-7.27-24.213-11.289-28.213-7.346,7.251-25.021,10.52,1.6-34.809-52.252,9.385-13.885,32.136,19.1,44.56,15.578,7.173,24.635-1.058,12.654,26.9,43.1,7.616-14.366-41.463-76.715-5.577-57.118-10.116-5.808-24.386-26.213-32.29-24.655,4.808-5.212,3.615-8.02-3.6-16.058-3.616-4.019-8.52-9.5-15.328-17.02-6.52-7.654-14.79-17.462-25.367-29.867,11.75-1.962,66.618,44.444,16.616-11.962,38-8.424,62.926,40.29,105.813,100.5-.116-10.52,33.155-14.5,38.771-40.983-18.059-9.424-47.829-58.791-65.657-67.907-14.077-32.463,46.887,46.079,61.733,54.541-7.865-19.424-18.674-36.809-31.29-52.926-12.789-16.039-26.674-31.405-43.213-44.944-32.559-27.6-67.2-54.829-99.7-87.715,53.868,38.444,59.983,33.751,107.64,68.965-18.078-32.6-2.192-33.521,21.347-18.77,24.193,14.116,52.907,46.5,63.022,75.35,2.943-38-28.982-67-73.446-96.831-21.885-15.251-46.079-31.425-69.464-50.637-24.463-18.251-48.483-39.175-68.792-65.811,32.848,7.539,84.022,54.733,125.025,91.12-1.654-9.847-16.366-27.155-5.635-30.136,40.579,41.579,59.541,76.927,117.543,135.2,33.829,3.827,39.906-22.713,24-62.272a236.812,236.812,0,0,0-15.885-31.732A309.847,309.847,0,0,0,5351.581,1139a465.123,465.123,0,0,0-70.08-66.811c8.423-4.4-2.77-19.751,6.75-23.328,2.4,15.6,14.943,37.752,46.945,70.734,17.635-28.982,38.463-44.579,84.658-26.6-76.465-86.619-140.237-126.583-218.049-194.432,35.367,9.52,60.561,25.54,94.274,53,16.578,14,35.463,30.771,57.021,52.752,20.962,22.539,45.368,49.637,75,82.638,30.79,23.674,29.944,3.9,65.868,25.213-.23-7.808-.327-15.52-9.52-29.309-16.828-15.982-4.654,2.154,4.808,14.712-13.712-7.289-42.791-31.1-69.984-58.945-27.559-27.521-53.33-59.2-66-78.042-22.6-4.327-56.714-35.617-90.754-66.868-34.751-30.6-71.157-59.464-93.427-62.618-11.577-15.808-11.4-26.328-5.942-34.482,33.752,25.617,66.061,48.156,97.658,69.2,31,21.943,60.542,42.829,89.851,63.561,14.789,10.4,29.79,20.578,44.482,31.348,14.25,11.212,28.559,22.559,43.156,34.059,28.655,23.636,59.387,47.56,88.639,76.638-.077-20.1-19.6-39.059-44.5-62.387-12.5-11.635-26.367-24.386-40.194-38.732-13.923-14.308-27.174-30.79-40.56-48.195,14.078,9.847,27.021,20.328,39.637,30.636q19.01,15.491,37.29,30.29c24.25,20.058,48.329,38.867,70.311,58.368,43.041,39.79,84.984,76.542,123.2,115.005,18.885,19.578,37.521,38.906,56.157,58.252,18.366,19.616,37.924,38.579,55.175,59.58,17.751,20.79,35.694,41.81,54.041,63.33,18.309,21.636,37.482,43.617,55.118,67.734,3.942-4.365-8.885-27.04-18.058-43.06,25.232,15.424,60.752,101.485,87.446,131.333-3.27-13.635-19.885-43.31-38.6-73.177-18.558-29.963-39.424-59.945-52.368-73.811,16.231,5.193,48.983,50.926,85.966,110.948,9.27,15,18.943,30.809,28.347,47.233,8.673,16.808,17.539,34.04,26.386,51.233,17.27,34.617,34.713,69.118,48.695,101.043,17.5,28.443,17.481,29.078,1.192,16.155-7.058-18.539-15.328-35.906-23.52-52.349-8.1-16.462-16.078-32.04-23.943-46.329-15.731-28.482-30.636-51.926-44.848-67.08,4.192,17.1,21.135,58.214,37.829,69.042,12.52,25.424,8.347,32.271,21.79,58.676-18.289-11.77-38.79-35.617-60.522-66.58-11.059-15.4-21.636-32.963-33.809-50.983-12.309-18-24.847-37.117-37.5-56.791-12.52-19.789-25.309-40-38.117-60.253-12.789-20.212-27.078-39.444-40.31-58.56-13.443-19.039-26.636-37.444-39.367-54.618-6.5-8.558-12.77-16.809-18.828-24.828-6.481-7.654-12.943-14.924-19.155-21.751-4.078,2.75,7.135,17.4,12.52,27.79-13.5-20.155-30.809-40.483-50.425-63.734q-14.569-17.424-31.117-37.232c-10.77-13.4-22.212-27.694-34.982-42.6-7.02.885,4.173,14.231,12.924,26.559,8.462,12.558,15.02,23.655.711,18.559,29.579,40.906,63.157,82.2,95.12,125.987q23.886,32.973,48.079,66.368c16.174,22.232,33.251,44.021,48.118,67.042,15.558,22.674,31.078,45.233,46.368,67.522,15.5,22.251,31.136,44.079,44.848,66.465,27.9,44.425,57,86.235,81.638,126.275,16.443-4.5,45.136,31.713,76.446,77.234,7.712,11.5,15.712,23.444,23.77,35.386,7.4,12.308,14.808,24.6,21.982,36.482,14.52,23.79,28.559,45.81,41.175,61.849-.654-19.674-16.731-54.349-32.963-90.889-16.347-36.54-35.848-73.83-38.079-102.351,20.366,15.9,41.213,37.1,63.06,72.08,20.04,35.6,40.637,85.35,61.349,156.93-7.981-3.962-16.424-24.771-24.54-26.924-3.9,5.154,7.039,31.117.827,32.771,16.808,24.463,33.424,53.368,49.56,103.12,1.077-23.944-6.942-62.33-21.193-110.178,24.982,35.463,34.943,94.523,30.348,124.563,14.423,32.078,28.136,68.619,43.482,109.351,15.02,40.771,32.924,85.562,45.944,136.391-2.327-15.1-4.75-30.963-7.25-47.483-3.231-16.347-7.078-33.271-10.923-50.848-7.943-35.021-16.385-72.369-25.213-111.313-10.52-38.6-21.462-78.811-32.694-120.006-5.808-20.539-10.635-41.732-17.135-62.58q-9.519-31.271-19.155-63.1c73.638,195.413,128.294,421.615,158.661,629.355q5.451,39.06,10.827,76.927,2.682,18.924,5.327,37.559,1.817,18.693,3.6,37.059c4.885,48.906,9.558,95.812,13.962,140.045,2.634,44.31,5.308,85.985,8.385,124.294q2.481,28.732,4.789,54.887c.885,17.424,1.885,33.944,3.058,49.406-4.174,2.673-4.116-6.731-3.885-16.77-5.462-35.463-11.962,10.6-22.52-18.328-1.9,40.906-5.692,88.793-10.135,140.18-5.808,51.348-14.174,106.12-21.174,161.026-8.539,54.849-18.635,109.659-25.732,161.661-8.712,51.752-17.078,100.485-20.866,143.6-11.75,22.059-28.521,78.138-40.925,136.16-3.02,14.52-6.058,29.155-8.962,43.271-3.27,14.116-6.365,27.713-9.27,40.425-5.5,25.444-9.539,47.31-11.212,61.368-3.366-5.6,6.519-31.617,1-34.1-8.02,20.77-18.424,50.041-30.213,84.062-13.231,33.656-27.828,72.119-42.291,111.967-13.635,40.156-31.405,80.138-45.386,119.006-14.04,38.867-27.251,75.427-38.348,106.178-8.328,7.02-19.693,30.751-25.232,22.232-8.828,26-20.848,58.2-37.944,91.389-17.078,33.271-35.5,69.311-53.694,104.755-18.424,35.31-37.848,69.369-52.233,101.351-7.327,15.924-13.635,31.251-18.6,45.541-5.058,14.25-9.462,27.136-11.6,39.04,2-42.963-53.714,56.426-78.734,101.12,4.961,12.135,39.079-61.945,37.29-31.54-5.731,8.692-13.75,23.674-22.155,39.271-8.731,15.4-17.328,31.751-22.886,44.137-11.1,24.751-9.808,33.5,28.078-14.193-13.577,37.579-68.484,85.773-51.733,40.713-9.212,12.654-3.423,13.481-3.1,18.578-45.252,54.791-.923-35.636-32.29-7.019-25.771,43.848,1.75,12.539-3.173,40.1-40.271,42.405-73.926,70.542-114.313,112.159,8.731,5.154-15.731,33.271-47.483,68.292-15.828,17.578-33.329,36.963-50.117,55.6-17.117,18.289-32.848,36.444-43.887,52.656,17.309-20.309,58.772-56.983,96.216-97.62,19.021-19.981,37.81-40.232,53.233-58.6,15.578-18.212,26.367-35.79,31.867-48.31,17.385-23.174,12.577,10.77-11.327,33.79,6.154,1.6,48.329-46.06,6.192,6,20.616-28.021,40.886-47.848,62.926-68.061,11.02-10.135,22.347-20.54,34.559-31.771,12.059-11.443,23.886-24.751,36.963-40,15.981-1.885-12.943,31.559-6.692,37.463,32.405-39.751,33.694-55.156,52.233-84.177-65.118,73.83,26.059-53.849,52.08-104.293,38.6-45.041-16.058,35.386,4.442,24.328,16.174-8.885,27.54-60.926,31.924-78.312,18.712-25.29,17.424,11.27,45.214-47.387-5,14.77-11.25,32.078-20.635,50.329-9.327,18.251-20.462,38.31-33.117,59.83-12.693,21.481-26.751,44.579-42.252,68.638-16.328,23.5-33.905,48.175-52.367,73.772-35.944,51.887-79.888,104.1-123.468,159.007-21.655,27.559-45.964,53.58-68.888,80.927-23.386,26.924-45.906,54.849-70.272,80.715,31.559-63.252-60.233,48.464-59.965,30.309,51.695-57.926,61.137-59.868,109.89-120.428-8.9-3.077-34.944,25.924-52.194,38.521-17.674,27.886-42.233,52.194-66.118,75.792-11.943,11.809-23.79,23.424-34.617,35.232-10.886,11.77-21.52,23-29.905,35.29,3.9-.634,27.347-17.674,41.213-28.463,13.866-10.827,20.078-13.52-9.231,16.231,20.848-10.289,46.752-31.059,77.754-59.233-18.309,20.328-35.771,39.694-52.637,58.445-17.078,18.559-34.752,35.348-51.56,52.407-34.059,33.578-66.33,66.695-102.678,97.619-17.943,15.693-36.232,31.655-55.1,48.176q-14.222,12.289-28.944,24.982c-10.212,8.078-20.655,16.251-31.29,24.617-42.906,33.232-88.7,70.772-144.641,108.524-16.5,2.1,76.5-54.752,23.193-25.5,1.711-8.154,23.578-16.328,29.213-14.981,18.521-16-7.981-.558-6.4-10.6,90.293-66.714,106.659-72.753,128.448-101.7-42.348,18.809-152.315,125.236-184.585,135.006,16.808-16.174,39.963-33.271,63.983-54.1,24.367-20.424,51.483-42.06,79.042-63.58,28-20.982,54.387-44.291,79.773-65,25.213-20.9,48.541-40.271,67.85-56.234-18.655,27.328-60.349,61.792-98.235,86.62,1.654,2.308,3.231,4.461,4.712,6.865,36.867-22.155,66.08-46.541,93.446-71.407,27.078-25.193,51.06-52.291,80.2-77.907-10.385-10.731-78.1,64.791-75.734,34.925-37.963,36.829-59.406,46.195-89.37,69.753-8.558,14.5-43.848,49.137-92.638,86.37-24.251,18.847-50.868,39.482-78.754,58.983-28.424,18.847-57.425,37.425-84.85,54.157,6.308-8.385,75.022-63.522,7.27-19.693,23.116-21.385,30.194-34.771-19.193-1.808,18.9-16.462,45.079-36.713,71.426-55.637,26.251-19.116,51.5-38.463,70.907-50.041-2.711,12.77-29.847,38.963-1.9,27.155,8.885-15.4,29.944-35.675,73.119-65.291.654,5.539-21.712,20.732-36.386,32.559,17.117-8.193,29.54-16.809,39.848-26,10.116-9.366,17.808-19.636,26.212-30.405,16.789-21.655,35.482-46.021,77.561-75.542.885,8.808,16.847-2.865,14.655-7.1,17.1-13.674,16.481-.808,22.116,2.5,16.1-14.635,32.059-29.155,48.118-43.713-71.715,36.847,41.752-43.771,46.291-71.311-25.444,23.712-69.022,60.368-115.236,101.677-23.309,20.443-48.771,40.463-72.657,61.042-24.232,20.212-46.695,41.329-68.119,59.176,28.367-26.6,34.463-39.983,22.655-33.963-11.6,6.269-43.579,28.79-93.7,71.907-2.058-3.635-4.173-7.173-6.539-10.559-19.482,24.636-49.944,41.31-66.58,43.618-13.962,27.809-57.291,66.176-89.85,100.543-13,4.847-36.944,16.27-66.7,31.674-14.75,7.809-31.136,16.443-48.444,25.655q-12.953,6.952-26.443,14.308-13.819,6.808-27.982,13.9c-37.713,18.75-76.388,38.848-111.447,57.118-35.79,16.962-67.714,32.732-90.715,45.1-2.75,8.981,14,1.577,31.848-6.558-1.135,15.578-59.733,17.155-40.463,28.482-23.771,7.673-50.041,17.271-77.523,28.251-27.405,11.116-55.868,23.809-84.5,36.5-57.868,23.905-117.255,46.137-168.469,55.849-18.5,22.693,67.388-23.347,49.156-.961-26.867,17.521-27.617,8.443-75.85,25.886,9.731-24.809-92.562,17.789-97.562,2.038a395.86,395.86,0,0,1-41.848,13.79c-12.578,3.5-23.982,6.673-35.348,9.827a689.916,689.916,0,0,0-75.157,25.405c1.519,6.731,71.542-24.982,93.255-20.348-21.04,13.212-99.274,26.848-90.158,39.56-25.29,6.366-82.677,4.654-94.408,16.731-23.059,3,1.212-3.75-.942-7.654-25.79,5.981-59.272,14.462-97.774,21.02-38.5,6.462-81.5,13.654-125.544,21.02-88.446,12.231-180.893,26.347-250.357,39.213-17.443-7.289-39.79-5.174-66.6-1.25a469.021,469.021,0,0,1-93,6.1c7.347-7.846-10.308-9.827-14.77-14.866-86.927,5.385-96.081,9.809-175.95,6.654-26.367-17.135-205.952-33.751-252.473-26.809,7.654,2.365,19.5,4.789,33.713,6.578,14.251,1.211,30.79,2.654,47.752,4.1,33.944,2.73,69.522,5.808,91.735,11.52-51.849-.27,15.308,18.885-67.58,15.558,40.848-15.635-32.309-16.789-75.023-29.54,6.808,15.693-68.042-4.635-142.526-17.481,1.615-15.962,43.983,8.308,64.792,2.365,7.192-8.616-89-9.9-60.2-20.02-30.348-3.808-63.811-10.732-98.812-16.193-34.886-6.231-71.427-10.923-106.274-19.693-35.04-8.02-69.08-16.328-99.851-24.924a374.1,374.1,0,0,1-43.175-14.02c-13.308-5.039-25.521-10.077-36.367-15.154-53.214-15.674-79.2-15.731-97.754-11.693-88.581-31.059-129.16-61.31-204.317-84.908q2.394-4.616,4.808-9.309c-28.809-10.231-57.291-21.116-86.023-33.54-28.347-13.366-57.214-27.674-87.658-42.925-15.231-7.654-30.847-15.558-47.021-23.693q-23.713-13.125-49.137-27.251-25.559-13.9-53.137-28.944c-9.27-4.885-18.693-9.943-28.328-15.058q-14.193-8.221-28.963-16.789c-16.232-9.077-15.1-1.884-19.616.116-38.463-23.328-64.83-40.656-85.1-54.945-19.809-15.135-33.617-27.193-47.56-39.232-27.482-24.693-56.887-47.233-128.929-103.62,24,8.058,33.963,19.155,65.138,43.713,6.327-8.423-58.272-50-36.848-51.829-28.54-16-46.925-33.5-69.542-55.522-22.04-22.77-47.675-50.906-91.966-87.369-.942-10.423-7.366-20.886-16.982-32.867-9.539-12.1-22.847-25.1-38.694-39.31-15.866-14.212-34.252-29.617-53.983-46.541-19.789-16.808-39.348-36.829-59.714-57.6,0,11.1-3.577,19.866,31.213,53.5-30.578-25.251-60.907-52.887-90.543-81.331-29.347-28.713-56.233-60.1-83.042-89.889-27.194-29.5-50.925-60.618-74.157-89.1-22.924-28.751-45.791-54.58-64.907-79.119a25.409,25.409,0,0,0-9.808-7.462,33.491,33.491,0,0,0-4.923-1.5c-11.52-15.02-29.944-46.6-47.329-71.965-17.52-25.27-32.194-45.887-40.5-36.444,17.366,34.1,55.868,79.965,91.677,124.448,17.655,22.424,36.867,42.752,52.925,60.887,16.1,18.1,29.5,33.579,37.867,44.6,27.655,33.867-11.366,14.366,35.079,50.31,14.385,16.789-4.116,9.75,13.174,28.655-7.385-6.5-22.9-19.347-41.656-36.386-18.135-17.655-39.675-39.367-60.387-62.2-11.674-17.27-12.866-26.1-9.27-31.04-38.213-42.155-7.673,6.692-28.636.366,38.81,28.847,73.388,102.62,100.581,119.6-12.193,1.616-26.424-16.212-44.329-41.983-18.02-25.713-40.386-58.58-68.811-88.1-30.944-34.521-19.309-14.04-70.138-66.83,4.635-1.25,9.327-2.4-1.154-17.231,17.4,14.77,49.252,59.791,64.522,69.83-.173-21.328-32.348-66.311-68.561-116.486-17.155-25.77-35.367-52.81-51.406-78.523-16.078-25.635-29.982-49.906-37.136-70.945,14.251,5,10.962,6.462,13.885-7-17.308-25.136-36.906-62.214-56.753-97.159-19-35.482-37.194-69.522-55.291-87.254-6.885-18.251-15.808-37.713-24.54-59.214-8.539-21.559-18.135-44.464-28.444-68.35-10.039-24.04-22.1-48.521-32.348-74.792-10.558-26.059-21.386-52.925-32.463-80.234q-8.366-20.453-16.847-41.175-7.558-21-15.155-42.156c-10.077-28.175-20.116-56.406-30.078-84.35-18.482-56.252-34.155-112.005-48.1-163.161-20.943-7.52,10.5,47.771,3.75,60.907,6.616,14.366,11.52,13.808,19.847,42.541-5.289,6.347,1.212,37.905,10.539,68.33,9.039,30.5,18.059,60.926,12.27,67.041-13.751-36.848-24.693-63.56-34.867-93.408-10.174-29.905-21.251-62.368-37.444-109.87-.154,16.558,4.981,43.136,12.693,74.484,3.846,15.674,8.366,32.559,13.154,50,5.289,17.27,11.4,34.886,17.212,52.483,11.808,35.156,23.039,70.08,31.694,99.37,9.577,28.905,15.616,52.521,14.789,66.022-8.154-19.559-18.039-40.367-28.232-61.445-9.5-21.366-18.828-43.271-27.424-64.311-16.828-42.194-30.79-80.869-27.347-108.408,7.135,22.154,9.1,35.155,11.712,47.252,2.539,12.135,5.712,23.366,16.693,41.425,2-29.04-11.847-64.888-25.54-108.217-7.212-21.5-15.27-44.54-22.828-68.888-3.731-12.135-7.539-24.559-10.674-37.328-2.75-12.924-5.212-26.059-7.231-39.482,12.1,13.25,5.808,40.867,19.616,58.964-11.058-46.291-10.058-98.966,2.577-77.869-6.077-29.905-17.693-75.042-23.443-111.236-5.6-36.213-8.289-62.637-1.962-53.906q-5.568-26.107-11.116-52.118c-3.866-17.289-7.366-34.713-9.981-52.329,3.731,3.346,6.77,29.713,11.02,29.405-.154-50.137-31.348-84.408-14.578-104.947-3.1-17.616-5.943-33.617-8.539-48.348-2.077-14.77-4-28.328-5.789-40.982-3.673-25.309-6.808-47.1-9.9-68.215-7.02-42.233-9.789-82.523-12.693-144.276-13.308-13.077-5.231,62.253-12.327,74.888-5.135-4.808.481-52.637-11.174-46.117,1.212-22.174,1.75-45.271,1.75-69.926-.115-24.616,1.539-50.887,1.712-79.234.212-28.309.442-58.791.692-91.985,1.635-33.213,3.346-69.08,5.269-108.313,9.135,14.6-1.231,37.463-1.1,91.677,3.039-10.885,5.25-26.924,7.327-44.81,6.27-1.6-1.654,54.079.365,76.215,4.481-34.136,9.327-63.407,11.924-95.812,3.269-32.328,3.731-67.772,8.847-113.851a307.441,307.441,0,0,0-7.731,45.867c-1.269,18.559-2.692,39.175-4,58.752-.827-32.386-11.1-28.367-7.1-77.638,1.423,8.347,3,16.751,6.866,16.751,1.9-42.656,3.577-79.311,5.5-122.083-.058,34.04,3.25,31.405,7.25,14.539,4.25-16.9,8.039-48.175,12.674-71.484,2-21.078-4.443-2.308-7.366,13.827,2.039-.154,6.193-19.174,11.674-49.041,2.6-14.962,5.693-32.655,9.077-52.021,3.385-19.4,6.346-40.579,11.462-62.234,9.5-43.406,19.1-89.793,28.924-131.064,11.308-40.983,21.751-77.042,29.617-100.5,5.673-28.232,3.4-38.848,14.828-74.522-4.346,3.173-13.347,35.155-18.6,57.1-6.866,20.751-2.558-4.077,6-34.1,8.943-29.925,20.6-65.368,23.155-67.176-5.077,25.578-1.962,34.79-.981,48.329-7.116,8.327-11.289,21.616-14.866,36.829-3.231,15.327-6.423,32.386-13.116,48.194,2.808,7.02,7.366-9.577,12.02-27.232-2.5,44.656-22.539,87.715-26.6,133.237,9.654-30.655,19.135-72.407,27.463-107.1,4.269-17.328,8.5-32.771,12.924-44.041,4.577-11.212,9.77-18.039,14.712-18.443,33.059-119.64,63.964-201.048,111.524-306.225-.327,9.789-7.577,27.655-16.02,46.214-7.731,18.828-16.289,38.483-20.751,51.041,7.539-5.365,16.02-29.713,26.1-57.406,10.52-27.559,21.27-59.06,29.694-79.85.327-27-24.963,58.926-29.059,51.214-7.039-1.462,7.366-37.348,21.578-72.869,12.193-9.847-8.616,33.04-18.135,57.81,9.981-13.616,17.078-31.559,24.309-50.56,7.135-19.039,14.424-39.175,26.059-56.464.942,4.173-6.712,19.366-11,32.1-4.443,12.635-6.9,22.174,1.769,13.885,5.346-13.251,1.615-12.116,1.212-16.289,69.734-121.255,129.083-252.954,195.317-364.517-7.289,1.923-23.463,25.463-39.367,52.483-15.981,26.982-31.6,57.522-36.579,74.119-12.078,6.462,4.6-25.5,4.193-33.617,13.27-7.4,49.983-77.157,79.619-124.486-10.1,13.058-14.539,18.059-16.078,15.924-1.269-1.961.731-10.962,6.962-23.905-25.078,30.79-37.636,34.982-78.465,107.64,4.693-18.674,16.712-53.368-19.289,3.865,15.1-26.578,31.059-52.368,47.618-77.754,8.366-12.693,16.616-25.386,25.424-37.829q13.847-18.145,27.847-36.463,28.328-36.175,57.406-73.292,30.549-36,62.349-73.5c14.078-22.539,6.712-27.655,32.117-51.156-5.693,15.212,11.558-3.269,36.175-33.021,24.693-29.713,56.156-71.176,82.177-99.389-11.231,5.366-46.56,38.886-28.809,11.577,14.924-13.481,53-50.771,88.081-88.235,36.694-35.982,70.619-72.119,74.58-86.7,36.252-33.54,4.808,4.943,28.963-10.135,11.039-14.193,36.886-38.021,63.714-62.618-17.27,8.866,5.6-14.943,39.1-45.617,34.694-29.348,79.927-65.561,104.351-84.946-26.636,27.713-22.078,30.771,18.328,2.327-30.117,23.289-65.811,50.887-103.889,80.331-37.6,30.078-75.061,65.2-110.909,100.408,12.674-3.019,41.579-26.482,52.387-27.29,21.866-20,42.848-40.983,65.349-59.983,13.789-12.481,8.9-13.4-2.365-3.866-.942-2.019,12.751-13.154,21.232-20.962,7.52-6.346,14.962-12.693,22.655-19.212-26.809,33.828-1.1,7,28.271-9.4,24.77-22.655-15.52,8.6,7.77-15.328,14.347-11.116,24.713-17.02,26.078-13.078-2.6-3.346,83.042-74.926,81.85-63.022-26.944,21.559-45.1,34.271-59.5,43.04,26.424,3.866,46.252-26.79,46.6-5.443,17.732-14.943,22.693-22.77,28.655-31.136,6.02-8.308,12.712-17.655,35.482-33.463,12.462-1.846-4.346,13.174-20.116,28.1-15.655,15.212-31.155,29.251-18.789,22.482.442,9.308-45.675,28.367-45.117,37.713-31.078,21.174-72.926,41.1-44.617,9.462-9.5,4.866-22.136,14.328-36.059,24.578,11.077,2.558-29.732,33.213,22.636,9.808-26.136,23.482-26.174,17.02-56.676,45.444,38.636-19.866,6.635,3.4-38.348,39.6-43.964,37.29-103.389,85.5-120.082,112.274-12.1,6.9-35.021,28.963-55.195,47.137-1.731,8.789,17.174-11.462,33.328-27.809,0,3.769-17.385,20.674-29.04,33.251,8.808-6.02,20.539-16.232,33.348-27.886-3.116,7.731-27.021,28.213-45.348,42.252-18.135,14.193-29.924,22.6-11.174,3.077-86.869,91.581-179.566,203.644-252.819,303.168,16.289-15.731,36.021-39.559,57.1-66.868,5.212-6.846,10.558-13.924,16.02-21.078,5.731-6.981,11.558-14.039,17.385-21.193,11.654-14.347,23.443-28.924,35.1-43.252,11.635-14.308,23.1-28.347,33.944-41.675,11.212-12.981,22.52-24.693,32.655-35.329,20.424-21.155,37.5-36.848,48.675-42.771-23.174,23.847-33.636,34.6-44.483,45.714-5.308,5.673-10.731,11.462-17.866,19.039-7.173,7.558-15.655,17.212-26.655,31.078-7.154,9.674-7.481,13.155-16.578,24.54-.154,13.885,25.751-17.962,29.232-10.52,6.366-10.654,21.193-43.579,1.173-20.135,7.635-13.6,35.617-37.906,61.407-63.484,25.867-25.559,50.425-51.695,54.6-67.465,14-11.77,36.059-27.52,56.81-44.541a368.206,368.206,0,0,0,29.1-26.251c8.885-8.673,16.655-17.02,21.655-25.424,8.616-3.885,13.789,2.962,44.867-36.059-4.519,9.077-21.424,26.77-45.541,49.541-24.347,22.52-53.31,52.733-85.638,83.408-32.771,30.271-63.83,65.638-93.658,97.293-30.1,31.482-54.387,63.061-71.965,87.35-16.828,22.789,19.482-13.731-23.751,37.406,19.866-12.635,33.386-42.6,57.291-64.657,4.923,1.923-31.232,41.1-43.444,58.464,3,6.923,37.425-38.386,17.116-2.712,36.367-37.5,30-48.06,55.233-65.965,9.789-12.25,3.365-10.943,15.808-25.251-1.962-6.115-19.924,10.77-34.213,26,15.885-34.021,40.848-47.271,67.676-74.811,26.828-33.752-24.328,22.559-15.539,3.673,48.137-49.387,31.828-26.386,66.657-53.772-51.137,49.483-6.058,7.25-24.6,37.232,13.308-14.481,22.136-24.232,28.309-31.617a158.85,158.85,0,0,0,12.462-17.655c6.077-9.674,11.174-17.712,35.271-38.136-5.635,2.923-11.27,5.866-22.732,17.058,12.654-12.924,36.232-35.713,62.7-58.906,26.867-22.809,55.253-47.329,74.869-66.83,3-6.808,2.558-10.6,14.847-29.059,26.847-21.232,52.656-41.329,59.58-39.5-23.328,18.828-28.078,26.174-42.5,39.521,7.981,3.519,32.886-21.078,18.135,2,47.637-39.925,46.252-45.406,62.849-59.983,1.712.115,14.1-9.174,23.5-14.808,9.4-5.673,15.02-8.693,1.75,2.135,10.693-2.923,33.175-33.54,78-63.888,2.673,2.4,14.366-5.154,30.04-16.193,16.039-10.52,35.886-24.713,53.829-37.04-74.138,45.983-4.539,2.539-28.328,6.808,32.694-24.193,54.156-26.328,46-35.213,36.021-23,67.753-36.732,122.563-72.753-11.866,18.27-40.233,23.328-84.677,54.022,28.232-7.346,26.5-5.962,77.33-34.175-2.346,4.943-29.136,20.751-47.021,32.636,21.078-8.231,52.829-25.847,64.964-26.463,13.808-9.289,8.577-10.135,9.6-13.77,15.462-10.558,25.751-15.847,31.982-17.482,6.173-1.808,8.1-.288,7.327,3.327,70.234-37.829,100.293-60.118,150.545-76.85,35.136-21.174-35.175,12.174-28.463,2.962,44.675-14.27,98.947-39.6,157.392-61.2,29-11.212,57.945-23.924,86.7-34.867,28.79-10.731,56.791-21.174,82.619-30.828,23-9.654,29.251-15.347,24.828-18.5,16.174,1.135,77.561-19.193,146.122-43.021,34.79-10.289,71.484-21.155,104.966-31.078,8.4-2.385,16.635-4.712,24.578-6.962,8.039-1.769,15.808-3.462,23.174-5.116,14.847-3.154,28.271-5.789,39.675-7.616-2.058,2.808-24.867,7.52-40.925,11.635,32.54-3.827,127.987-23.847,123.448-32.463,7.923,2.1,133.391-16.443,41.829.1,44.367-4.6,91.985-14.4,139.929-19.559,47.771-6.116,95.1-12.962,138.064-11.789-16.655,2.173-31.29,3.789-44.964,5.116-13.6,1.846-26.213,3.539-38.829,5.231-25.232,3.423-50.541,6.846-83.85,13.212,35.463-7.539,18.616-6.385-3.923-3.269-22.635,2.577-50.329,10.4-37.5,9.885-28.117,2.346-66.1,7.539-109.89,14.347-43.5,8.193-92.485,19.751-143.468,30.982-50.137,14.366-102.5,27.751-151.93,43.175-24.655,7.923-48.771,15.693-71.83,23.155-23.155,7.27-45.425,13.828-65.638,21.366,9.943-1.923,24.309-6.827,40.329-10.924-36.117,20.655-52.118,14.539-79.965,24.559-33.559,13.9,18.712-3.75,1.654,8-14.289,4.019-25.386,6.25-38.982,9.924a281.377,281.377,0,0,0-53.637,19.789c-32.982,15.635,18.328-4.5,1.827,8.116-18.732,5.789-38.329,12.808-58.5,20.693-20.078,8-41.1,16.02-61.291,26.636-20.328,10.347-40.944,20.847-61.5,31.309-20.4,10.674-41.021,20.751-60.176,32.348,12.039-3.423,44.483-20.078,64.041-27.328,14.424-5-1.481,2.712-24.04,13.212-22.886,9.924-50.771,25.828-62.868,32.194,5.923-5.346,11.5-10.616,10.02-13.1-35.078,20.443-79.657,46.771-98.139,55.1,2.731-6.02,21.943-11.462,23.309-16.635-22.251,5.731-94.735,58.714-99.524,50.56,16.655-7.443,44.848-25.578,59.484-38.252-6.25-.846-54.695,34.982-39.136,15.039-9.866,14.154-63.657,45-93.523,65.061,10-1.423,32.809-17.539,61.214-34.1a390.14,390.14,0,0,1-53.714,39.733c-18.02,10.962-36.04,20.059-52.868,29.328,3.654-6.577,15.231-9.77,34.79-24.79,3.173-10.25-42.06,14.789-85.139,44.964-42.56,30.924-84.369,64.676-78.7,65.291-3.827,9.193-34.482,24.943-13.578,5.019C1355,767.16,1269.3,851.395,1271.669,831.855c-33.136,29.117-8.423,18.635-49.444,53.156-1.1,16.866,18.309,7.135,52.675-22.232.769-4.173,3.423-8.423,9.693-14.4,6.519-5.769,16.866-13.039,32.751-23.6.865,2.154-12.212,12.885-20.27,20.578,21.693-11.1,94.331-82.311,101.062-75.965-25.251,23.059-25.29,16.6-54.656,44.483,113.255-92.331,44.541-24.174-18.924,22.366,4.443-3.212,7.385-14.443-3.673-5.616-26.117,21.482-21.328,23.251-51.079,49.387-12.9-3.769-72.7,52.618-55.272,18.578-17.155,15.4-16.635,18.751-29.713,31.328,18.962-10.27,29.021-9.039,60.676-35.944-19.52,22.4-41.964,42.694-64.5,65.311-22.578,22.578-47.137,45.637-73.773,70.58-51.733,51.214-111.024,111.217-171.546,194.528,19.135-8.308,97.639-103.216,86.35-71.811,48.675-58.253,30-52.579,64.541-74.753,11.289-16.6-6.423,1.615,14.058-26.828,33.328-28.251,70.772-61.291,109.293-97.062,19.943-17.232,39.964-35.386,59.656-54.272,19.463-19.155,39.1-38.5,58.734-57.772-13.616,16.155-4.308,13.116,24.655-12.616,9.75-9.347,6.847-13.943-3.462-5.866-.154-4.539,78.58-65.984,45.983-31.271,31.867-24.578,59.2-44.117,85.235-64.118,13.193-9.75,26.02-19.751,40.021-29.174,14.174-9.135,28.982-18.366,45.214-27.944-2.442-5.019,36.348-28.386,69.619-46.867,14.943-12.174,21.251-20.539,31.905-30.848,68.33-36.79,139.776-77.619,201.7-111.274,63.291-31.021,115.832-56.983,148.084-56.637,25-10.443,63.387-35.232,36.5-23.578-3.269-3.058,44.579-22.039,63.214-30.694.019,1.9-15.635,8.058-25.232,13.251-18.462,10.385-16.578,14.847-22.77,21.713-30.078,9.654-61.868,20.828-93.427,35.059-31.328,14.789-63.214,30.905-95.274,47.118-31.982,16.289-62.7,35.29-93.985,51.695q-23.453,12.4-46.291,24.443c-14.962,8.385-29.886,16.328-44.694,23.636-1.635,4.6-14.4,16.039-56.137,44,12.328-11.808,11.443-13.847-3.616-7.885-30.463,21.078-67.676,46.887-66.445,52.6-50.137,24.828-87.946,53.714-169.046,123.256,1.154-5.75-11.924,5.346-14.02,3.443-41.04,35.694-81.2,68.272-117.928,103.832q-28.155,25.963-56.233,51.849c-18.328,17.751-36.136,36.213-54.676,54.541-74.426,72.946-147.834,155.7-232.145,259.742-19.059,27.386,7.058.038,20.078-19.155-8.52,26.713-50.618,66.715-38.29,40.752-27.924,40.829-54.829,78.388-77.907,116.178-23.616,37.463-48.445,71.811-70.849,106.986-7.154,13.616-.942,11.385-10.212,27.54,4.4,1.577,24.578-39.482,26.79-32.117a256.209,256.209,0,0,1,13.77-26.559c5.6-8.827,11.731-17.828,18.328-26.886,13.116-18.1,27.886-36.6,42.964-54.772,14.731-18.424,31.059-35.713,46.656-52,15.5-16.462,30-32.059,42.425-46.329,16.4-37.636,28.309-34.867,76.08-100.254-11.77,3.865-28.578,23.713-47.752,48.31-19.866,24.116-38.675,55.522-59.291,79.407-3.135-5.846,26.847-39.175,32.252-45.675-5.154,3.6-10.1,6.9-19.5,19.463,2.077-8.193,13.424-25.04,25.04-39.636,12.231-14.193,24.386-26.367,26.694-26.367,15.578-25.578-19.174,8.6-16.885,2.635-8.616,1.462,54.233-62.233,10.327-9.423,11.539-8.424,38.54-45.156,55.137-62.945,10.616-3.327-41.925,50.945-31.348,47.714,42.252-46.56,83.831-96.427,113.447-122.679-12.654,4.4-12.962,4.193-9.1-10.654,7.789-8.308,10.674-8.866,19.885-19.578-.462,3.616,4.712-2.442,10.924-8.6-10.308,12.962-8.9,15.02-1.212,8.9,8.154-5.712,23.463-18.828,41.752-35.54,18.366-16.635,39.483-37.136,59.964-56.983,21.193-19.078,41.31-38.059,56.156-53.272.923,2.1-11.327,13.289-18.808,21.232-14.116,16.308,4.616.192-4.808,17.174-24.366,22.386-42.117,39.136-60.118,56.041-18.078,16.847-36.348,33.925-59.906,58.714,16.6-11.943,41.04-35.578,63.637-56.445,11.308-10.443,22.116-20.232,31.232-27.559,9.366-7,17.212-11.424,21.809-11.827-10.02,9.385-19.828,19.212-29.174,29.521,39.886-37.329,28.713-22.155,54.272-41.31-12.135,14.578-24.193,26.386-35.694,37.406-11.212,11.308-22.366,21.251-33.617,30.944-22.347,19.539-46.041,37.348-69.926,64.118-13.481,17.347-2.981,14.654-32.944,45.771.731-4.712,16.828-22.136,15.058-24.751-12.4,3.962-10.058,20.02-34.482,43.944,3.693-9.462-8.039,3.6-26.674,25-17.655,22.193-41.579,53.156-64.311,78.061,1.192-5.712-3.231-3.423-11.116,3.827-7.923,7.193-19.27,19.385-30.886,34.156-23.693,29.155-52.137,65.849-68.926,84.2,26.482-44.771-9.943,6.616,2.731-16.251-27.04,31.828-54.349,73.657-83.773,117.678-14.116,22.366-27.174,46.252-40.886,69.849-13.154,23.924-27.828,47.117-39.406,71.292-12.1,23.9-23.982,47.252-35.252,69.522q-8.654,16.587-16.828,32.29c-5.077,10.616-10,20.9-14.693,30.713-19.02,39.271-36.194,70.984-50.522,89.985-27.059,69.465-52.464,127.814-70.157,182.681-9.539,27.155-18.6,52.964-27.347,77.927-7.577,25.309-14.962,49.848-22.251,74.1-6.943,24.386-15.366,48.137-21.136,72.946-6.1,24.809-12.27,49.926-18.712,76.061-3.173,13.1-6.423,26.386-9.75,40.04-3,13.712-5.366,27.905-8.154,42.444-5.366,29.078-11.039,59.752-17.1,92.677-2.4,13.6,1.577,11.808,3.058,15.385-11.751,94.2-19.828,122.083-22.52,209.664,2.115-23.059,5-48.194,8.02-73.849,4.25-25.5,8.577-51.58,12.751-76.715,4.154-25.078,7.25-49.329,10.231-71.022,3.519-21.655,5.75-40.964,6-56.56,4.866-39.713,9.885-34.6,14.77-68.407,1.635-32.828,2.789,22.212-9.75,55.31,6.385-15.655,11.616-45.541,20.155-79.907,8.116-34.482,17.424-73.907,25.886-109.87,19.866-71.253,38.5-127.967,43.733-101.832-23.02,86.427-45.81,172.258-67.541,254.012-9.616,41.194-20.039,81.292-28.694,120.178-7.27,39.1-13.962,76.753-19.251,112.6-1.231,17.443.058,29.29,4.846,29.6,9.943-22.4,7.5-74.176,13.385-110.851,1.269,16.385,3.9,13.366,6.885-12.4,6.981-4.058,2.577,26.713,11.308,17.212-8.481,24.79-16.9,65.849-23.655,107.986,13.828-30.271,8.616-13.077.615,28.405,6.712-2.1,10.635-16.712,13.27-37.252,3.616-20.385,6.1-46.714,8.366-72.465,2.289-25.694,4.077-50.829,7.02-68.561,3.558-17.674,7.4-28.04,12.039-24.52-3.308,11.962-6.5,23.809-9.924,26.02a716.5,716.5,0,0,1-5.462,95.081c-1.654,16.443-4.981,34.713-6.846,57.349-1.75,22.693-3.846,49.579-6.423,83.062,10.847-2.212,4.769-107.62,21.789-107.2-3.116,31.944-4.423,60.637-7.616,86.946-3.154,26.405-6.077,50.6-8.9,73.946-3.885,46.829-8.558,90.273-8.635,140.545,3.385,2.75,4.481-2.365,5.481-13.116,7.635,52.695-9.6,26.828-5.385,109.87,5.558-7.75,8.135-28.328,12.674-40.117,1.1-64.676-1.135-140.66,1.039-206.856,2.692-29.444,7.539-122.294,19.328-121.313-4.789,36.367-16.193,82.715-3.942,96.331C448.285,2843.986,456.555,2971.9,454,3054.4c10.808,11.347-.327-72.734,12.174-53.445-1.75,44.56,2.75,56.887,9.02,96.12,3.442-31.328-5.4-85.2,7.6-94.427q.952,27.261,1.865,54.349c10.808-11.77,3.616-65.292,11.52-66.33-4.712,114.678,17.135,266.7,24.04,363.228,9.25,25.655,7.077,10.481,12.539,53.291a43.171,43.171,0,0,1,5.712-.385c-2.4-15.174-5.346-31.944-7.6-49.964-1.673-18.1-3.423-37.29-5.212-57-3.462-39.425-7.25-80.85-7.02-119.928,12.924,80.331,26.136,192.855,46.348,315.168C588,3616.617,620.2,3747.6,667.757,3859.8c9.25,8.75,33.809,76.465,18.847,64.176a320.3,320.3,0,0,1-24.732-47.425c-6.462-17.193-12.135-35.232-17.6-53.214-10.616-36.1-21.655-71.542-32.444-101.851-2.789,14.347-9.674-1.885-19.116-31.251-4.539-14.732-10.077-32.617-15.924-51.618-6.058-18.962-10.347-39.56-16.116-58.752,12.174,25.616,4.269-6.577,8.4-14.443-8-29.905-11.654-50.464-15.462-71.35-2.75-21.116-5.6-42.444-12.654-74-3.885.173-7.673.269-11.52.635,11.674,39.829,10.1,66.964,3.539,80.715-9.885-31.213-4.25-24.713-15.462-66.638-3.039,29.79-25.732-21.635-13.077,55.368,3.346,9.174,9.039,18.751,12.866,21.078,3.962,2.289,4.693-2.346,1.539-22.29,11.5,26.059,17.9,60.791,23.4,91.85,5.712,30.944,11.558,57.849,26.424,66.042C584.061,3700,597.658,3755.8,617.7,3810.8c9.6,27.636,18.27,55.887,28.771,83.7q16.357,41.483,32.867,83.311C689.7,4006,702.682,4033.1,714.99,4060.5c12.693,27.232,23.943,55.08,37.656,81.658,27.405,53.118,53.041,106.6,82.85,156.334a480.57,480.57,0,0,0-22.886-61.561,427.2,427.2,0,0,0-23.251-47.252c-16.366-29.943-36.886-59.541-55.753-112.044,18.462,23.963,12.289,5.943,0-23.366-6.212-14.616-13.693-32.194-20.712-48.637a320.925,320.925,0,0,1-14.039-43.463c18.366,28.617,8.385-14.731,22.424,7.52,7.193,17.058,14.578,34.867,21.443,52.579,6.5,17.847,12.924,35.463,18.809,51.637,6.039,16.116,11.577,30.886,18.039,42.271,6.731,11.27,13.6,19.54,21.039,23.251,16.02,30.905,30.155,63.561,45.233,95.254,15.635,31.444,31.059,62.465,45.675,91.87,14.693,29.482,31.578,55.695,46.771,79.484,15.693,23.443,30.232,44.137,46.771,58.349,11.77,13.693,25.463,34.944,40.54,56.964,7.577,10.962,15.347,22.212,23.6,32.559a253.5,253.5,0,0,0,26.54,27.059c9.731,18.943,9,29.732,48.156,80.254,12.808,2.442-12.481-25.059-17.289-36.617,4.6-1.923,17.732,16.9,32.309,34.482,14.635,17.6,29.271,35.194,33.675,33.309,21.155,22.482,2.269,16.481,18.751,35.655,5.02-1.173,16.52,9.847,32.771,25.521,16.366,15.539,36.483,36.675,56.5,57.868,10.058,10.52,19.77,21.4,29.578,30.944,9.962,9.423,19.347,18.212,27.655,25.616,16.655,14.867,29.021,24.309,32.944,22.982,19.27,19.193,12.231,24.04,31.905,42.925,24.482,18.251-8.539-14.02,17.5,1.923,17.6,14.75,34.771,29.078,51.6,43.155,16.712,14.193,32.867,28.367,49.887,41.1,16.732,13.077,33.213,26,49.6,38.867,16.424,12.847,32.482,26,49.791,37.579q25.617,17.828,51.483,35.848c17.443,11.866,34.732,24.386,53.676,35.04q28.126,16.356,57.426,33.386c19.636,11.309,39.886,22.578,61.791,32.425-20.02-16.712-39.675-30.867-60.83-42.368-21.136-11.443-43.656-20.443-67.907-28.886-20.943-18.4-36.752-36.617-56.926-55.368-21.751-13.481-47.695-31.694-50.329-22.886-12.039-26.367-65.888-49.733-113.39-92,1.942-7.309,8.654-.1,20.289,10.423,11.539,10.673,27.136,25.809,44.887,36.367-8.808-14.231-60.7-47.483-30.405-44.175-15.4-19.521-31.482-33.5-58.522-52.887,11.577.308,32.617,15.212,54.368,33.963A697.266,697.266,0,0,1,1587.7,5029.6c-13.6,2.884,12.635,22.693-11.4,12.212q15.578,11.712,32.309,24.309c11.231,8.231,23.366,15.924,35.5,24.27,24.386,16.443,49.964,33.732,76.388,51.541,27.155,16.6,55.176,33.713,83.638,51.079l21.328,13.193,22.078,12.212q22.126,12.26,44.348,24.559c118.582,65.387,241.492,123.583,339.246,166.354-6.5,2.4-24.174-3.385-29.5-.154-38.194-21.77-91.7-50.406-149.238-74.638-28.078-13.52-56.637-27.136-84.254-39.483-13.751-6.308-27.444-11.923-40.194-18.039-12.693-6.231-24.828-12.231-36.194-17.808,10.308,7.962,23.5,16.154,38.1,24.559,15,7.712,31.463,15.481,47.906,23.386,33.059,15.462,65.253,33.04,87.831,47.944,2.923.6-16.347-6.019-35.886-13.923-19.712-7.578-40.81-14.135-43.329-9.155,14.674,12.808,42.175,30.6,80.811,46.349-11.308,10.173-32.463-13.79-64.272-22.732-1.712,6.461,39.367,22.27,44.867,29.231,45.617,5.328,50.233,21.636,110.87,48.676-10.1,9.789-38.194-7.135-22.482,13.347,19.9,9.212,23.386,5.692,39.56,11.847-6.712-6.385-27.347-14.424-20.347-19,33.636,11.866,39.021,20.289,31.309,26.963,28.1,1.846,74.119,37.867,80.331,20.059-7.943-6.27-56.81-26.386-54.906-40.021,30.771,10.327,24.443,16.385,60.983,27.29l3.1-6.346c-7.135-4.308-145.064-61.311-104.966-29.251-15.193-10.693-38.694-24.905-65.157-40.541-26.328-15.9-56.387-31.674-82.061-50.771,19.636,13.366,76.638,34.443,133.66,60,29.213,11.1,58.656,22.924,83.984,34.925,12.674,6,24.309,11.981,34.406,17.943,10.289,5.366,18.982,10.75,25.54,16.078,39.79,16.462,22.6-4.558,44.041-.25,19.6,7.981,36.829,15.79,50.733,23.443,14.058,7.346,25,13.808,31.5,20.712,25.271,5.347,35.405,1.827,67.292,11.231-5.6-11.289,10.212-10.52,34.6-5.4,24.77,3.827,58.368,11.52,87.985,16.155,6.289,12.75-46.175-5.828-31.617,11.27,40.944,23.809,62.6,7.25,118.89,20.443-16.02-5.4-30.694-10.9-44.829-16.424-13.866-6.269-27.386-12.4-41.271-18.674,63.811,7.692,207.855,28.924,248.607,40.521,4.731-3.539,15.885-4.269,30.213-3.5,14.308.942,31.886,3.211,49.618,4.558,35.309,3.4,70.715,8.1,79.734,5.347,42.925,15.731,19.155,23.1,103.255,25.578,9.116-9.462-3.654-13.424-38.483-11.75,14.289-7.423,59.772-9.154,52.6,4.635,15.751-.327,12.135-6.6,14.5-10.866,25,6.712,80.927,1.27,64.734,18.328,17.328-5.9,70.349-2.52,54.233-16.75,12.731,2.038,36.636,5.539,55.368,5.327,18.732-1.1,32.175-5.308,24.213-16.731,56.656-8.423,50.675,6.289,92.331,3.635,29.251-2.9,5.327-16.52,12.924-23.79,48.387-6.058,33,1.02,26.444,11.693,27.982-2.02,24.77-8.789,25.847-14.981,30.059,9.4,69.061,1.211,92.543,6.27,48.483-12.154-.25-13.462,24.5-24,22.79,2.289,67.561-.25,101.735-7.289,33.982-8.231,57.387-19.212,38.79-29.405,55.252-3.865,47.137-24.828,85.735-41.117,18.616-.539,26.04,6.154,29.213,15.6,7.443-12.481,37.5-19.251,72.849-25.944,35.194-7.1,75-16.789,102.082-30.04-10.1-20.655-99.408,32.329-127.025,29.713.385-9.731,20.1-12.962,37.232-16.77,16.9-4.424,31.367-8.75,21.559-18.174,27.6-9.02,54.406-18.1,80.773-27.367,26.328-9.327,51.426-21.059,76.907-31.674,51.271-20.616,100.063-47.368,152.373-73.426a4028.851,4028.851,0,0,0,352.112-216.183c-1.327-7.712-23.021,3.654-6.193-10.693,36.925-26.367,2.789,7.251,37.444-12.1,17.308-15.866,35.617-30.771,52.791-47.579q25.905-24.924,52.445-50.425,13.3-12.635,26.771-25.347,12.866-13.357,25.924-26.886,26.078-26.712,52.733-54.1c17.75-18.116,34.251-37.925,51.791-56.887,17.021-19.5,35.56-37.733,51.849-58.484,33.482-40.559,68.618-80.542,100.7-124.1,133.2-170.084,252.049-365.286,349.535-576.046A3121.131,3121.131,0,0,0,5577.385,3699c8.578-28.251,16-56.868,24.309-85.273,3.942-14.25,8.309-28.424,12.039-42.733l10-43.31c6.4-28.963,14.347-57.541,19.866-86.716l16.347-87.562c18.693-117.159,34.021-235.261,37.079-353.535l2.211-44.29c.52-14.732-.039-29.444.058-44.175q-.029-44.194-.058-88.158c-.289-29.251-2.9-58.368-4.058-87.446-1.846-29-1.884-58.176-5.731-86.812-15.116-15.809-32.694-21.443-36.444-85.042,14.52-12.308,19.962-44.618,18.751-87.85a623.439,623.439,0,0,0-6.4-71.772c-5.154-25.405-11.866-52.271-19.847-79.157-7.923,6.77,13.962,56.118-9.635,40.1,3.461,16.212,6.6,29.348,9.385,40.771,2.52,11.443,4.02,21.366,5.673,30.944C5654.135,2456.122,5655.943,2473.931,5656.039,2501.24ZM253.87,3596.308c6.039-1.923,2.942-22.021-1.539-52.176-4.077-30.194-10.866-70.292-15.847-111.293-9.116,27-8.039,66.368-24.29,45.675,3.866,27,7.827,54.945,11.866,83.2,5.308,28.059,10.693,56.426,16.039,84.562,5.846,27.982,10.135,56.214,17.866,82.619,7.154,26.559,14.52,52.195,22.174,76.2-20.289-70.6-15.655-89,2.731-46.1-14.02-44.29-11.539-53.445-18.924-88.35-11.712-36.059-2.9,27.655-14.731-13.616-1.712-35.867,15.828,19.058,14.212-16.539,2.942,18.135,20.212,91.042,12.481,43.983C268.179,3639.156,261.505,3641.58,253.87,3596.308Zm769.67-2400.743c19.52-23.347,32.309-37.079,43.617-50.252,11.462-13.058,22.213-25,40.31-42.425C1105.351,1092.445,1020.405,1184.949,1023.54,1195.565ZM973.057,4516.831c2.154-1.327,16.539,21.636,31.828,44.175,14.789,22.847,33.194,43.194,38.463,39.848-9.481-11-19.193-21.712-26.886-32.348-7.693-10.6-14.424-20.443-19.347-28.462-9.847-16.059-12.616-25.117-2.385-19.886-13.1-20.135-23.886-36.694-33.386-51.348-9.616-14.5-16.4-27.982-23.693-40.387-13.943-25.213-26.751-48.233-45.348-81.734-13.539-13.674-11.654-4.578-9.443,4.4,2.539,8.77,5.443,17.424-7.443,3.4-7.654-24.251-15.982-49.041-26.155-75.677-10.539-26.4-22.039-55.137-35.136-87.773-14.847,25.655,33.636,121.775,75.061,201.663,12.52,1.365-5.1-30.021,16.866-8.116,15.116,26.135,36.309,63.061,52.887,90.523C975.634,4502.523,985.307,4522.235,973.057,4516.831ZM5603.113,2295.345c-11.712,3.943-14.04,21.116-6.692,51.695C5612.709,2349.944,5615.018,2332.809,5603.113,2295.345Zm-171.662,1834.66c15.27-32.54,42.1-75.792,31.944-83.677C5454.857,4068.6,5415.394,4150.8,5431.452,4130.006ZM1988.488,5379.063c12.481,7.058,24.174,13.231,35.675,17.866,11.52,4.519,22.482,8.346,32.771,12.1,20.655,7.539,38.771,14.751,54.56,26.771-35.617-25.02-41.925-42.387-91.7-56.195,29.713,14.616,21.193,11.924,5.27,7.52C2009.488,5381.986,1987.007,5373.928,1988.488,5379.063ZM949.133,4483.656c8.039-.711-36-75.33-46.887-82.177C925.766,4436.347,913.939,4438.885,949.133,4483.656Zm374.882,430.02c-14.481-14.885-30.713-31.6-47.5-48.867-15.924-18.078-32.444-36.656-48.694-54.1-16.058-17.655-32.732-33.348-46.791-47.81-14.174-14.347-27.405-25.886-38.925-33.021,11.924,14.866,4.5,15.731,10.058,26.04,26.713,22.155,55.156,47.271,83.235,74.908,14.02,13.866,28.309,28.021,42.733,42.29C1293.206,4886.752,1308.457,4900.425,1324.015,4913.676ZM553.307,3635.291c-3.346,2.173-3.731,9.231-5.173,9.1-1.4-.192-4.212-7.481-9.943-34.732-8.347.731-8.347,21.732-.827,48.329,7,26.694,18.751,59.541,29.1,85.119-21.52-66.33,19.232,26.367,7.77-15.135C570.212,3717.025,562.634,3679.966,553.307,3635.291Zm224.279,584.43c17.251,11.155-35.54-84.407-41.175-85.715C757.6,4171.546,753.451,4178.47,777.586,4219.721ZM5477.492,1408.671c1.5-11.346-23.943-50.1-45.868-77.311-10.692-13.75-21.578-23.828-27.309-26.54-5.692-2.75-6.4,1.981,1.847,18.655C5435.26,1339.822,5459.626,1397.747,5477.492,1408.671Zm-4410.7-247.646c10.25-12.539,25.905-29.636,25.578-33.386-41.944,47.695-86.85,87.254-116.967,137.448,25.732-30.963-10.693,19.616-3.558,16.02,38.232-56.233,76.465-97.985,105.447-128.794C1071.754,1158.544,1066.407,1164.487,1066.792,1161.025ZM417.051,2786.291a342.213,342.213,0,0,0-3.808,46.656c-.327,12.847-.25,23.482-.173,33.809.135,20.655.25,39.887-3.212,72.427,11.212,9.346,3.943-142.179,15.462-81.619.1-26.309,3.443-30.078,4.1-55.021C424.455,2783.425,424.34,2803.638,417.051,2786.291ZM388.011,2964.3c-3.192-49.348-.442-82.908.789-113.678.789-15.347,1.5-30.078,1.865-45.771,1.1-15.654,1.789-32.348,1.731-51.695-2.039,22.309-5.558,44.213-6.5,65.253-1.212,21.039-2.289,41.1-2.9,59.541C382.068,2914.854,381.626,2945.356,388.011,2964.3ZM583.943,1873.576c8.847-22.193,25.809-52.214,40.233-81.081,14.77-28.732,27.482-56.156,33.021-71.157-22.482,47.56-8.693-4.654-20.289,19.982,5.539,7.1-6.366,32.579-20.5,60.061C602.175,1828.805,585.789,1858.364,583.943,1873.576Zm-4.327-2.654c9.193-22.616,19.27-41.406,27.021-58.426,7.885-16.943,14.174-31.771,18.6-45.271C617.252,1779.3,578.27,1856.287,579.616,1870.922ZM487.439,2138.55c-11.924,46.387-26.193,93.312-29.117,124.871C469.938,2226.169,488.669,2162.57,487.439,2138.55Zm407.922-835.538c-3.289-7.25,8.346-22.424,4.6-35.078-9.693,16.347-22.636,35.156-36.713,54.752-14.1,19.559-29.617,39.675-42.521,59.772-26.636,39.675-49.637,74.715-52.387,89.35,19.135-33.886,39.425-60.945,60.176-87.35,5.212-6.577,10.443-13.135,15.674-19.751,5.577-6.385,11.174-12.847,16.866-19.4C872.379,1332.11,883.8,1318.282,895.361,1303.012Zm269.647-352.766c-12.251,5.423-37.617,29.655-66.465,58.849-14.731,14.328-29.309,30.847-43.425,46.983-14.193,16.078-28.1,31.655-40.617,45,19.135-15.885,41.175-35.656,67.561-61.291,27.193-24.924,59.868-54.695,98.216-92.446-7.116-1.365-81.331,73.657-57.6,40.54C1126.852,989.633,1157.007,953.977,1165.008,950.246ZM965.5,1152.621c-3.346-11.75-55.31,51.118-55,65.83,26-37.1,26.809-37.732,31.617-28.713,10.058-13.328,25.424-31.54,24.943-35.386C936.959,1194.853,945.863,1167.641,965.5,1152.621Zm189.912-215.356c37.848-34.309,37.656-36.656,73.446-67.868C1226.4,862.857,1153.065,926.687,1155.411,937.265Zm-145.449,158.449c12.847-10.674,35-36.251,57.983-63.061C1076.446,1011.614,1007.616,1092.964,1009.962,1095.714ZM842.628,1291.261c-11.366,16.6-25.847,32.79-38.752,48.368-12.193,16.02-23.059,31.271-27.982,45.1,9.847-14.308,6.866-5.692,3.673,3.115C826.012,1324.878,805.857,1343.918,842.628,1291.261Zm-57.522,44.1c-14.385,22.809-25.193,41.694-28.078,52,15.789-24.251,15.058-11.25,35.194-45.483ZM632.253,1581.871c3.25,7.846,15.347-13.154,34.367-46.156C664.12,1528.138,649.234,1547.889,632.253,1581.871Zm20.732-56.637c15.808-33.271,36.117-47.695,36.771-62.926-27.29,42.906-15.135,9.193-9.366-7.9-10.308,18.309-22.809,39.406-35.444,60.58-12.6,21.232-25.655,42.367-35.213,61.83-19.9,38.463-32.732,66.253-23.193,61.08-11.462,17.347-43.944,55.5-22.328,37.367-12.328,20.886-36.925,73.734-56.945,118.2-19.443,44.752-30.944,82.5-22.443,71.2,5.885-18.039,13.635-35.886,24.347-58.58a876.282,876.282,0,0,0,38.386-89.735c1.212,13.52,16.347-23.578,20.539-20.866,15.02-38.5,39.6-80.234,61.157-117.255,22.116-36.79,44.117-67.426,51.637-86.2-2.192,15.635,42.464-71.446,14.693-25.251C677.774,1495.655,661.908,1519.5,652.985,1525.234Zm156.969-265.666c-12.943,21.809-13.27,31.117-16.9,43.714,15.52-20.655,41-60.945,37.483-43.906-17.539,17.559-55.041,70.907-56.926,84.831,11-19.347,30.559-43.791,47.118-66.676,16.751-22.77,31.328-43.387,35.271-53.464C825.165,1266.587,829.416,1239.644,809.953,1259.568ZM452.995,1930.156c-2.5-2.385,4-19.251-1.135-17.4-5.385,13.731-11.443,27.194-15.943,41.213,3.192,5.346,10.385-12.943,13.885-9.039,7.77-20.52,20.982-49.733,19.635-55.445C464.014,1902.9,458.533,1916.54,452.995,1930.156Zm5587.7-151.507c-28.309-54.272-25.809-104.5-51.694-112.332,13.943,27.059,5.616,30.405,8.731,45.848C6010.593,1714.4,6028.767,1790.457,6040.69,1778.649ZM1236.549,750.372c-17,14.193-41.233,35.367-42.714,41.06,29.867-28.636,34.175-29.6,29.944-24.232-4.231,5.4-15.116,19.155-14.155,21.713C1247.281,753.487,1254.223,744.237,1236.549,750.372Zm-74.022,98.1c39.944-33.175,38.54-37.079,76.215-67.83.288-9.27,33.29-39.675-7.212-11.4C1233.857,783.2,1174.374,826.606,1162.527,848.472ZM1041.714,953.362c26.309-25.251,99.081-100.639,56.56-45.175,8.327-7.923,20.174-20.732,21.713-19.193,35.848-34.675,35.828-43.04,46.714-59.907-16.924,16.52-30.732,29.328-42.579,40.021-11.828,10.751-21,20.059-29.886,28.309C1076.715,914.167,1062.042,928.514,1041.714,953.362Zm5.885-15.924c18.1-17.193,44.156-41.944,69.984-66.5,26.732-23.559,52.56-47.5,68.022-65.734-11.424,7.116-42.771,32.578-73.33,59.7C1082.985,893.243,1054.791,923.476,1047.6,937.438ZM799.876,1229.143c8.981-12.385,21.155-28.674,34.79-45.694,14.251-16.424,29.424-33.963,43.117-49.714,27.367-31.444,48.6-55.945,43.271-52.387C870.033,1137.254,828.781,1175.737,799.876,1229.143Zm-36.425,46.117c-14.4,17.462-35.079,46.348-54.733,74.484-19.539,28.174-38.194,55.522-45.406,71.715,16.347-26.443,38.848-53.829,57.964-79.407,9.616-12.789,18.539-25.059,25.693-36.444C754.278,1294.3,760.451,1284.319,763.451,1275.261ZM262.005,3565.769c5.289,27.771,10.193,31.963,15.558,58.31,12.539,7.365-1.365-43.752-9.577-88.658-6.212-8.75-4.75,3.231-3.308,15.251C266.486,3562.576,268.679,3574.48,262.005,3565.769ZM1026.136,933.4c1.673-7.289-16.424,6.943-34.771,25.251-18.02,18.635-37.021,40.521-39.694,45.848,11.674-11.154,23.232-19.116,35.232-29.309A265.489,265.489,0,0,0,1026.136,933.4ZM207.657,2637.476c5.5,16.866,4.481,23.482,7.539,32.482-5.423,43-11.943,73.926-18.328,106.313-6.673,32.367-9.962,66.369-13,115.332,5.25-2.6,5.4,17.847,10.308,16.6,2.039-43.117,11.616-12.77,16.462-72.349-9-24.04,17.982-147.776-.731-75.792.115-49.848,5.462-57,10.866-119.371C211.522,2658.573,216,2594.378,207.657,2637.476Zm-16.27,450.771c-4.327-67.984.808-92.524-4.327-135.718-4.077,65.734-9.443,157.276.615,225.375,15.212-9.962,2.731-83.465,18.732-13.75-7.693-47.406.808-153.757-4.481-119.851C201.541,3075.054,194.925,3073.458,191.387,3088.247Zm1.731,225.03c5.058-4.423,7.923,20.4,11.9,30.194-7.5-48.752-7.27-70.984-5.212-88.562,2.558-17.635,6.308-30.655,5.693-61.061C190.791,3191.963,188.733,3252.581,193.118,3313.276ZM479.631,4331.208c33.251,68.368,64,124.525,89.889,176.7-.942-17.385,42.1,52.733,21.6,7.039-15.135-22.521-28.905-48.887-43.81-76.081-7.4-13.6-15.135-27.386-23.4-41.04-7.635-14.039-15.885-27.924-25.02-41.368,14.424-30.693-90.735-210.721-118.486-325.842,7.231,55.368-9.577-6.866-25.674-9.135,23.02,45.81,40.386,128.66,66.965,153.911-10.558-23.982-13.251-36.425-12.289-43.483,17.885,39.732,29.886,70.792,30.405,85.235-7.693-16.866-15.231-32.771-17.885-26.078,29.79,59.118,32.54,69.176,27.963,86.484,21.828,47.349,28.847,38.213,45.252,64.426C491.381,4343.862,485.573,4337.708,479.631,4331.208ZM240.485,2414.12c15.481-72.388-1.6,15.731,2.212,16.385,5.923-42.31,10.924-36.983,16.732-72.753C255.159,2349.56,237.062,2397.1,240.485,2414.12Zm-11.674,74.6c-4.039,20.693-8.154,15.25-12.135,27.463-3.1,48.079-6.52,49.964-14.808,104.62C213.638,2630.322,233.2,2521.183,228.811,2488.72ZM2785.754,5997.187c-7.347,12.174,58.137,18.309,56.118,30.117,53.618,8.635,51.156-6.635,80.5-8.923-62.426-8.962-57.233-7.346-105.312-20.386C2813.006,6000.226,2803.352,6000.3,2785.754,5997.187Zm-2150.328-1386c8.058,13.058,16.058,25.924,24.213,39.1,3.154-13.4,12.231-4.289,5.923-19.9C653.1,4617.394,637.542,4595.912,635.426,4611.182ZM758.72,4804.037c24.809,40.675,41.636,51.637,70.311,82.119C821.915,4856.693,774.221,4797.5,758.72,4804.037ZM576.981,4521.351c25.5,39.675,17.1,24.213,39.579,65.311,2.731-1.5,5.635-2.692,8.481-3.923C601.213,4541.179,588.424,4531.447,576.981,4521.351Zm884.079,964.274c-25.751-26.79-62.541-41.5-96.7-75.407C1365.632,5426.545,1444.232,5490.587,1461.06,5485.625ZM248.87,3733.142c15.655,45.944,5,36.54,9.885,59.906C287.949,3853.089,246.735,3701.371,248.87,3733.142ZM1503.042,5530.819c-6.481,10.135,50.271,45.464,66.792,64.83-7.654,1.808-42.329-33.5-45.137-18.039,62.214,46.906,207.856,127.371,295.417,174.065,2.481-4.442,1.962-10.616,9.789-11.789,7.75-1.116,23.866,2.788,60.58,16.058-11.039-5.424-23.559-11.577-37.271-18.309-13.462-7.212-28.078-15.078-43.6-23.405-30.925-16.866-66.1-34.29-101.37-54.656-35.04-20.79-71.369-42.348-106.832-63.407C1566.584,5574.129,1533.467,5551.3,1503.042,5530.819Zm4055.261-371c31.386-33.309,53.714-57.311,73.446-79.1,19.693-21.79,36.232-41.791,52.733-69.522-89.35,99.351,9.059-16.443-16.924,6.078-38.617,39.906-59,62.733-78.157,85.5-19.059,22.809-38.6,43.906-73.619,81.792C5523.533,5206.9,5584.862,5106.416,5558.3,5159.822Zm119.313-109.39c25.25-29.828,80.253-86.466,81.311-102.274-9.712,7.289-31.751,30.617-50.349,53.33C5690.136,5024.3,5673.347,5045.105,5677.617,5050.432Zm245.934-3523.294c-23.693-19.713-44.925-63.1-83.273-113.774,4.289-2.731-5.4-18.385-10.654-28.924,21.751,6.308,18.443,19.155,22.481,40.29C5878.645,1432.633,5884.684,1469,5923.551,1527.138ZM2032.413,573.517c-34.752,14.578-37.56,16.52-82.158,42.079-8.4-5.212,31.925-14.924,32.963-24.809C1988.968,593.1,2034.874,565.036,2032.413,573.517Zm-627.24,434.212c-15.962,16.635-33.367,31.444-51.733,46.579-9.212,7.6-18.578,15.308-28.155,23.251-9.212,8.327-18.366,17.232-27.655,26.655-12.058,14.4,1.712,4.077,11.712-6.1-4.289,13.866-32.636,32.328-46.041,46.964-2.519-.731,35.79-45.887,4.577-15.155,19.732-28.367,54.945-49.271,103.774-101.543C1367.729,1042.481,1390.307,1019.711,1405.173,1007.729Zm-171.681,163.1c8.693-8.424,7.846-6.346,3.1-.673-4.5,5.866-12.462,15.732-18.424,22.79,5.577-3.846,11.174-7.635,12.828-4.673-16.751,20.135-14.847,8.077-36.809,37.1,3.346-7.423,21.193-30.905,5.4-13.674C1197.779,1204.565,1216.222,1196.642,1233.492,1170.833ZM896.111,1593.544c2.981-6.5,8.866-19.866,17.847-35.5,9.1-15.558,20.193-33.925,31.424-51.579,11.193-17.635,22.52-34.521,32.021-47.041,9.847-12.308,18.212-19.982,22.251-20.193-.058-11.539,28.117-46.233,64.388-89.389,38.232-41.771,82.408-93.466,117.851-138.6-59.272,70.927-127.237,164.7-194.1,263.531-31.521,50.676-65.272,101.082-93.485,153.084q-11.049,19.241-21.924,38.175-5.423,9.462-10.847,18.847c-3.269,6.385-6.558,12.77-9.808,19.116-13,25.386-25.732,50.137-38,74.042-10.174,18.847-17.309,34.925-22.463,46.214-5.154,11.25-8.25,17.789-8.731,18.309-.442.5,1.75-4.962,7.116-17.616,2.692-6.308,6.154-14.481,10.481-24.616,4.846-9.9,10.635-21.655,17.424-35.559,17.828-36.252,44.906-101.543,1.789-14.9,64.2-144.007,115.409-200.74,144.333-254.627C943.575,1510.618,913.554,1568.5,896.111,1593.544Zm790.67,3462.7c18.5-1.577,45.156,34.732,49.214,21.809,17.866,10.847,22.27,15.885,24.482,20.385,2.212,4.539,2.289,8.423,12.481,15.5-2.692.923-16.289-7.635-32.752-20C1723.841,5081.434,1703.917,5066.183,1686.781,5056.24Zm291.725,168.739c1.135,6.769-12.981,1.384-26.867-6.346,10.174,18.828,64.926,29.635,52.272,37.944-26.636-14.54-46.194-26.886-65.407-41.368C1952.486,5218.959,1948.793,5207.4,1978.506,5224.979ZM5076.051,1235.124c-4.539-7.654,3.52-11.539,16.193-9.308,12.559,2.308,28.886,11.558,41.848,28.713C5121.111,1267.318,5092.725,1231.836,5076.051,1235.124ZM2006.2,5276.789c29,19.578-58.464-9.885-73.753-29.828C1935.312,5238.94,2002.892,5285.828,2006.2,5276.789ZM1076.427,1252.933c4.712-.385-50.906,65.7-28.059,28.944-32.732,39.713-21.059,37.617-43.483,70.638,9.039-7.116,22.828-24.616,43.387-51.31-12.174,23.174,3.289,5.365,8.289,8.443-7.423,7.808-15.212,15.424-26.078,30.636,1.731,16.751,48.31-49.906,73.523-77.388q-27.29,34.877-54.81,70.042c-18.116,23.616-34.617,48.541-52.1,72.849l-25.982,36.694c-8.616,12.289-16.251,25.251-24.443,37.867L898.226,1556.5l-44.733,78.446c-7.346,13.078-15.1,25.982-22.155,39.213l-20.347,40.194c-13.385,26.809-27.559,53.156-40.252,80.061q-18.318,40.819-36.482,81.234c-12.731,26.674-22.943,54.272-33.694,81.465-10.4,27.29-21.982,53.983-31.424,81.234-17.9,54.81-38.444,107.89-52.56,161.834q-11.654,40.127-23.078,79.369-9.52,39.78-18.828,78.523c-13.751,51.406-21.847,102.562-31.963,151.622-2.192,20,4.154-4.27,7.635,2.346a262.287,262.287,0,0,1-4.981,29.386,117.642,117.642,0,0,1-4.423,16.789c-3.135,8.866-6.443,15.289-9.02,31.405,2.942,29.424-1.4,57.5-5.808,82.792-3.366,25.405-6.4,48.079-2.654,65.7-4.519,18.847-12.52,10.52-12.424,65.5-8.154-4.462-.135-67.849,1.673-108.7-6.25-1.731-9.327,21.482-16.828,9.9,1.808-11.212,3.135-21.732,4.1-31.751,1.481-9.962,2.577-19.385,3.423-28.405,1.712-18.039,2.346-34.482,2.981-50.195,1.308-31.405,1.865-60,13.308-91.754.885-12.27,1.808-24.559-.538-28.174-6.366-2.6-12.212,23.29-18,54.964-4.673,31.848-8,69.58-13.058,90.312-1.346-14.578,1.75-42.829,5.712-73.7,4.327-30.867,11.789-63.926,14.943-89.1-7.789,8.347-15.885,33.925-23.116,62.7-7.02,28.771-10.75,61.041-14.193,81.927q1.846-31.848,4.558-64.272c2.269-21.6,5.943-43.271,9.27-65.5,3.635-22.155,7.308-44.771,11.116-68.042,4.25-23.155,10.327-46.56,15.808-70.907,5.808-24.27,11.385-49.387,18.039-75.234q11.308-38.367,23.443-79.677,6.087-20.684,12.385-42.175c4.519-14.231,9.847-28.54,14.847-43.271q15.318-44.05,31.905-91.947c-9.731,32.636-23.943,76.965-37.867,118.736-13.02,42-23.136,82.292-28.79,105.543,5.423-5.366,11.5-17.1,16.885-22.29-.442-11.443,1.308-24.655,4.385-39.29A342.8,342.8,0,0,1,581,2115.645c11.924-33.848,25.847-72.157,36.329-112.717,1.019,21.251,5.981,7.808,23.79-33.5,11.6-30.194-7.808,1.212-14.328,23.155,11.635-34.059,23.5-59.406,36.829-88.812,6.385-14.789,14.212-30.194,22.886-48.117,8.577-18,17.808-38.521,28.021-63.33-7.4,3.077-25.251,31.328-42.5,64.5a352.939,352.939,0,0,0-22.5,51.348c-6.039,16.751-10.558,32.078-12.308,43.348-7.712,18.4-8.366.9-16.6,22,52.291-147.449,115.332-274.436,215.394-445.655-3.231.288-2.116-5.616,3.327-14.885-23.059,30.828-18.328,25.867-28.347,29.732-7.635,15.558-11.558,26.636-7.9,28.655-12.77,15.116-25.982,33.656-39.521,54.349-12.924,21.059-25.232,44.81-38.194,69.369-26.867,48.771-49.5,104.1-74.253,154.257,9.039-35.425-12.366-.9-24.155,17.462,3.846-24.328,27.059-42.367,44.079-86.465.385,10.654,7.5.192,18.212-21.559,10.885-21.674,27-53.849,43.906-87.5,8.481-16.809,16.482-34.348,25.347-50.426,9.039-16,17.751-31.175,25.674-44.406,15.808-26.405,28.386-44.848,33.655-45.867,11.4-25.347,23.4-46.733,34.078-69.2,11.058-22.232,22.1-44.752,35.963-69.753,17.982-15.635-15.5,40.636,26.6-13.116-2.077-17.655,30.944-35.367,67.292-87.216-.385,15.058-27.751,39.675-36.444,59.83,10.366-8.9,22.943-23.1,36.271-39.886,13.308-16.789,28.982-34.982,43.117-53.81,28.078-37.771,55.041-74,66.426-89.292,12.52-1.558,66-67.657,115.7-116.6-15.289,19.02-32.463,37.521-49.714,57.079-16.828,19.924-34.655,40.1-53.06,60.733q-13.818,15.463-27.982,31.348-13.356,16.53-27,33.521c-18.02,22.77-36.156,46.194-53.964,70.542,28.886-33.348,46.714-41.963.5,19.636,30.944-25.6,93.273-112.64,150.891-175.027.231,4.52-33.771,46.56,3.019,3.558-2.808,7.327-13.4,18.693-26.847,32.944-13.308,14.366-30.078,31.1-42.694,50.964C1073.446,1245.682,1060.118,1275.4,1076.427,1252.933ZM727.392,1735.686c-3.866,7.577-7.693,15.078-11.308,22.078-3.193,7.231-6.02,14.02-8.366,20.02-4.6,11.9-6.981,20.539-5.1,22.924,7.75-11.077,13.674-24.443,17.674-36.559C724.526,1752.128,727.3,1741.609,727.392,1735.686ZM588.1,2198.8c15.232-55.445,40.906-120.929,64.061-186.72,13.193-32.328,26.078-64.657,37.829-95.543,5.635-15.558,11.808-30.424,17.982-44.6,6-14.212,11.577-27.982,16.674-41C670.178,1922.117,627.06,2049.142,588.1,2198.8Zm-54.983,195.182c6.577,4.443,14.424-29.924,22.1-63.618C548.826,2322.77,540.633,2371.6,533.114,2393.985Zm372.248-931.831c24.117-39.809,60.637-93.37,78.061-111.928C969.287,1353.149,921.574,1426.595,905.361,1462.154ZM520.767,2317.4c4.231-1.058,8.02,8.193,12.789-9.827-3.442,2.154,2-15.424,7.5-34.886,5.789-19.386,12.981-40.271,9.924-45.829a272.682,272.682,0,0,0-15.6,34.79C530.5,2276.345,525.844,2294.6,520.767,2317.4ZM2453.24,322.352c-8.9,4.327-19.79,11.539.519,5.962-21.443,13.654-27.02,1.442-52.137,15.6,12.308-.077,46.137-10.02,65.906-13.6-15.77,6.5-44.675,14.655-78,23.847-32.886,10.75-69.946,23.232-102.62,35.905,8.25-7.616,59.022-27.944,76.138-31.251,13.885-5.4,8.116-7.25,25.193-12.962-8.827-.077-27.886,5.9-52.1,14.078,8.808-4.808,19.462-12.616-.712-6.02,9.423-4.846,22.462-6.981,41.175-11.25C2395.391,338.738,2420.257,334.1,2453.24,322.352ZM1811.9,621.866c-24.443,12.943-52,32.348-82.542,51.522-15.212,9.731-30.905,19.809-46.752,29.963-15.366,10.885-30.828,21.866-46.079,32.694-61.964,42.06-116.582,86.427-147.507,107.37-4.885,2.135-72.407,64.522-11.712,6.635,47.425-41.406,57.58-43.137,108.332-80.965,18.789-13.231,40.079-34.963,52.81-43.983,14.289-9.924,24.4-11.347,46.791-25.943,30.6-18.77,54.791-35.886,75.061-49.56,10.1-6.808,19.251-12.789,27.674-17.655A120.01,120.01,0,0,1,1811.9,621.866ZM1393.4,918.091c24.578-15.385,17.481-8.616,37.694-15.674-6.289,7.712-18.635,18.578-32.232,29.713-6.9,5.481-14,11.135-20.77,16.539-6.577,5.654-12.847,11.058-18.27,15.712,2.346-4.366,6.9-10.308,13.154-17.424,6.385-6.9,14.77-14.616,24.04-23.136-8.173,3.539-24.347,15.212-42.271,33.021.019-4.116,5.212-12.058,13.481-21.674,8.539-9.308,20-20.443,31.751-31.79-8.943,5.346-24.616,18.424-39.348,31.155-14.289,13.231-28,25.655-34.444,28.29-.308-7.058,42.521-43.675,40.694-36.117-4.308-4.9-11.135,3.443,27-32.848,21.4-18.135,7.75,6.27,35.463-19.578C1425.327,883.878,1378.114,920.572,1393.4,918.091Zm-193.72,211.49c9.308.192-47.848,43.5-45.194,49.695-33.252,33.309,13.116-24.713,31.848-44.983C1187.759,1137.889,1188.855,1140.928,1199.682,1129.581ZM3072.018,213.674c.712-1.769,17.078-2.058,27.732-2.885-1.885-2-24.77-.519-40.886-.212,8.654-1.962,17-3.885.538-3.654,36.733-8.231,45.752,2.846,81.792.481C3129.1,210.52,3096.615,211.751,3072.018,213.674ZM2246.057,390.3c-54.887,24.078-57.483,17.289-102.5,35.425C2156.091,417.837,2247.422,382.74,2246.057,390.3ZM2018.2,479.052c27.232-12.328,28-7.366,27.559-1.5-38.79,18.789-44.291,17.424-85.773,41.021,53.676-35.117-43.117,11.193,8.308-18.385C1974.641,502.495,2011.161,489.975,2018.2,479.052Zm-170.027,87.062c3.827,1.885-18.135,17.058,2.231,6.019,2.827.365-3.943,4.6-10.924,8.866-7.923,4.693-15.751,9.289-23.77,14.02,13.193-13.9-8.174-2.808,8.789-14.924-13.981,4.654-36,15.962-56.618,28.328-20.309,12.808-39.79,25.693-50.329,31.059,15.885-12.885,40.694-29.482,66.118-42.636C1809.152,583.845,1834.038,572.325,1848.173,566.113ZM1630.74,709.351c-2.789-.25,3.385-4.962,10.058-10.02,11.924-13.4,5.539-16.289-38.059,14.385-1.192-5.635,35-31.521,65.272-51.983-2.693,6.116,10.712-2.154,24.79-11.135-11.9,10.885-31.117,25.04-18.385,24.886C1653.722,688.907,1651.934,694.773,1630.74,709.351ZM1134.7,1156.217c1.846-14.308,28.847-38.982,44.6-51.829,8.231-8.193,8.212-10.058,7.962-11.827,14.481-11.712,5.25.135-9.808,16.655C1162.8,1126.139,1143.315,1148.7,1134.7,1156.217ZM1463.425,799.1c.346,1.712-9.923,9.75-25.674,21.578-15.366,12.289-35.905,28.694-57.137,45.714-43.31,33.059-85.754,72.715-93.562,87.408-22.232,21.135-9.847-3.75-17.789-1.577,16.982-11.462,41.636-37.963,48.752-50.252,25.463-19.385,18.635-9.539,16.078.038,42.329-41.136,20.635-22.078,70.7-68.022-15.9,9.058-48.31,37.829-66.311,49.291,4.6-6.4,9.02-12.654,6.712-14.751,20.924-15.52,46.521-36.636,69.33-54.522,22.789-17.962,44.291-30.79,54.1-33.078,39.309-38.444,65.061-44.944,64.253-54.06,20.039-11.1,40.213-21.963,80.715-53.06-2.808,13,23.655-5.193,54.176-22.982,30.386-17.9,63.214-38.021,69.311-34.367-12.424,5.981-29.04,15.058-47.714,25.77-18.732,10.674-39.6,22.809-59.253,36.656-39.636,27.194-79.811,53.522-100.755,70.311-8.789-1.1-30,12.731-53.849,30.809-11.9,9.058-24.482,19.116-36.482,29-11.943,9.923-22.6,20.482-31.963,28.867,2.058,1.981,12.212-5.769,23.655-15.154C1442.136,813.259,1455.867,803.393,1463.425,799.1Zm266.2-200.567c-26.29,24.27-94.87,61.676-105.812,65.291a217.27,217.27,0,0,1,21.136-15.1q12-6.693,25.54-14.251C1688.532,624.539,1708.552,613.365,1729.63,598.538Zm853.077-366.459c-14.27,7.52-37.06,15.02-70.2,23.924-32.905,9.693-75.753,22.309-130.583,38.463,11.75-5.4,12.347-8.731,4.481-9.077-7.9-.462-24.213,2.192-45.791,10.154,17.078-15.4,61.907-16.943,79.485-30.636,6.1,2.231,31.367-4.039,62.637-12.4C2514.069,244.253,2552.244,236.906,2582.707,232.079ZM643.773,1892.577c4.269,8.827-34.963,72.426-32.655,91.466-7.6,18.385-8.808.673-16.4,22.232C596.27,1991.178,630.426,1923.944,643.773,1892.577Zm178.739-393.672c-10.02,11.654-5.943.846-16.828,4.077,27.309-45,32.405-36.886,52.329-64.5C859.9,1451.788,818.8,1489.924,822.512,1498.906Zm2191-1359.408c-23.232,4.5-58.426,6.846-89.638,8.154-31.175,1.269-58,4.231-64.637,4.846,9.577-4.173,35.54-7.731,65.561-8.193C2954.82,143.517,2988.552,142.883,3013.515,139.5ZM2262,236.694c18.924-4,60.753-25.155,95.485-31.271-5.539,5.077-28.905,13.885-26.251,18.366-31.828,10.827-40.29,10.02-81.715,25.463-16.039-1.212-1.769-4.173-1.808-11.962C2263.385,232.752,2282.808,229.156,2262,236.694ZM1918.715,383.913c38.771-15.981-49.387,26.213-51.752,24.04-17.674,9.847-.058,4.135,14.02-2.481-22.309,18.6-56.637,24.674-89.1,45.406,1.212-3.519,22-14.674,36.713-23.386-7.212,2.077-14.212,4.193-14.6,1.1C1858.962,405.433,1885.656,397.663,1918.715,383.913ZM1778.67,456.051c-141.968,80.908-263.262,163.161-376.421,234.626,4.308-7.462,14.135-18,18.635-25.578,13.866-2.231,43.714-23.866,76.946-43.31,32.79-20.078,66.58-41.175,84.523-47.233,18.193-13.712-12.116,3.558,10.02-12.058-24.443,13.02-63.368,40.925-74.561,41.79a580.067,580.067,0,0,1,70.83-53.156c21.52-13.443,40.406-25.732,57.772-43.233,42.252-20.27-8.174,22.847,54.406-16.943-24.078,23.1-64.118,37.271-63.984,30.578-6.75,5.75-17.308,13.174-29.963,21.52-12.693,8.308-27.424,17.462-41.829,27.867,16.5-7.962,30.905-14.9,45.137-21.789,14.135-7.135,27.867-14.751,43.04-23.52,15.078-8.943,31.732-18.828,51.752-30.655C1725.495,484.129,1749.515,471.455,1778.67,456.051ZM5187.018,732.967c34.694,17.693,70.907,38.271,115.89,76.484C5323.331,818.913,5227.4,773.046,5187.018,732.967ZM1941.331,360.892c12.5-6.539,9.481-7.27,11.828-10.25,34.6-16.193,44-16.616,41.617-9.693-55.233,20.539-79.581,35.54-98.485,44.214-18.751,9.077-31.213,13.693-60.33,19.886,18.212-16.424,46-19.289,53.368-20.078C1919.138,364.681,1928.581,355.508,1941.331,360.892ZM1342.439,729.967c17.308-5.481-33.425,21.9-47.483,31.982,3.75-12,24.713-18.443,44.079-37.771C1343.266,725.486,1323.227,745.237,1342.439,729.967Zm-65.888,56.483c-8.635,7.77-17.712,14.251-27.944,21.1-9.943,7.193-20.828,15.02-33.771,24.386-12.847,9.539-27.559,21.02-44.714,36.04-8.6,7.52-17.77,15.885-27.655,25.386-9.616,9.731-19.559,20.924-30.367,33.252-1.231-4.6-15.308,8.9-15.693,3.135,12.154-9.212,30.194-24.29,45.541-38.1,15.808-13.366,28.405-26,28.271-31.809,11-8.193,27.809-20.751,45-33.578,16.866-13.231,33.5-27.52,44.252-39.771C1280.128,770.007,1258.4,800.008,1276.551,786.45ZM1214.01,821.7c-13.693,11.539-23.386,18.059-25.155,14.366,18.655-18.385,23.039-18.751,11.885-8.1,23.52-20.155,108.082-97.177,113.928-88.754C1294.206,752.795,1222.241,808.124,1214.01,821.7ZM1905.6,339.641c15.674-3.789-55.522,24.655-37.156,25.636-56.06,23.636-104.274,47.406-169.1,82.523,11.77-10.827,50.445-32.79,92.254-55.137C1833.846,371.066,1880.425,351.354,1905.6,339.641Zm3762.363,783.843c31.251,30.405,57.6,48.214,91.12,89.35-3.9,2.846,7.212,17.732,13.04,28.309C5737.273,1192.661,5716.849,1182.814,5667.962,1123.485ZM1596.874,501.36c-1.481,3.789-12.058,9.039-12.616,7.923-21.251,12.5-22.539,16.155-22.809,19.539-35.925,22.751-37.675,24-71.945,50.329-5.616-6.673,28.405-26.828,58.06-45.848,3.558-12.789-67.042,43.752-53.6,21.636,29.732-14.366,32.886-16.251,39.213-21.77,6.385-5.4,15.462-15.174,59.234-41.617,7.173.769-6.193,10.6-8.827,15.693C1581.931,510.38,1589.239,506.053,1596.874,501.36Zm112.37-68.849c.5.192-4.962.385-17.9,4.577-13.154,3.866-32.944,13.251-61.484,30.886,1.423-3.692,11.924-8.866,12.4-7.75,11.4-7.616,21.578-14.366,30.79-20.52,9.558-5.616,18.193-10.674,26.193-15.347,16.116-9.116,30.155-16.039,45.156-21.328C1732.63,412.914,1711.417,426.4,1709.244,432.511Zm258.743-137.929c-40.31,24.54-75.388,30.232-132.429,61.714l-3.269-10c39.752-21.578,39.559-15.808,79.523-37.463-12.52,8.693-12.635,12.347-2.693,9.962C1918.965,316.1,1939.312,308.428,1967.987,294.582ZM564.865,1568.082c-1.75,10.5-11.077,30.905-23.636,55.483-3.923-5.865-20.52,26.1-29.04,33.963C516.959,1636.758,547.537,1601.641,564.865,1568.082Zm-67.426,114.948c-1.654,8.27-3.212,16.347-.115,17.77-6.827,11.039-13.77,22.366-12.539,26.886-9.808,9.231-19.116-2.154-23.174,2.6C462.745,1712.242,473.38,1734.147,497.439,1683.029Zm1009.6-1168.707c-1.769-4.019,32.136-25.617,20.693-24.828-44.117,33.117-50.868,47.848-105.159,86.1,26.886-23.655,23.193-24.155,4.923-13.116-18.347,10.924-49.579,35.675-79.734,59.387,10.577-10.808,21.328-21.751,32.328-32.982-11,2.6-67.292,49.348-95.235,71.1-22.79,16.366-8,4.327,8.962-10.077,17.347-13.943,37.406-29.617,22.693-23.482,33.155-21.732,79.119-56.426,88.273-53.695,36.829-28.155,66.945-47.964,95.35-66.945,28.232-19.366,56.887-34.925,91.37-54.022-1.731,3.135-11.789,9.885-11,11.943-8.27,5.154-16.732,10.443-25.136,15.655-.423-2.135,14.77-11.174,24.347-17.732C1551.506,471.205,1537.717,493.475,1507.042,514.322ZM427.032,1813.631c3.9,4.846-9.616,37.675-24,71.773.192-29.021-13.635,7.289-21.251,5.365C385.222,1873.134,412.57,1843.344,427.032,1813.631ZM792.01,1179.814c-10.347,13.328-6.52,4.9-1.635-1.789-16.828,14.481-20.347,30.694-45.925,58.733.885-6.443,12.9-23.885,12.674-29.251,26.1-38.194,21.193-18.9,48.021-56.676C803.722,1157.063,791.779,1174.314,792.01,1179.814ZM526.94,1576.909c3.462-.423,14.462-22.866,23.078-38.29.615,19.251-23.809,45.733-47.1,94.158-8.6,1.712,24.251-50.714,21.962-57.233C533.248,1560.774,530.748,1569.716,526.94,1576.909ZM206.964,2338.944c4.981-27.559,13.039-60.637,21.539-94.37,4.423-16.828,8.885-33.848,13.212-50.445,4.731-16.462,10.289-32.271,15.058-47.1-17.559,45.848-30.059,94.966-44.04,142.853-14.6,47.81-23.482,96-33.175,140.526-4.4,22.347-9.443,43.675-12.4,64.176-2.789,20.5-5.443,39.829-7.866,57.637-4.519,35.675-7.635,65.387-8.654,86.542-2.327,50-10.6,19.54-14.9,43.463,3.212,38.848-8.885,65.888-10.962,122.41-.173,19.385,4.712,16.52,5.4,1.173-1.442,40.6-2.827,80.6-4.231,120.256-1.115,19.847-.808,39.636-.538,59.33q.288,29.568.538,59.041l.423,58.964c.6,19.674,1.981,39.31,2.885,59.06,2.385,39.425,3.135,79.2,6.616,119.313-19.809-18.924-22.751-3.866-20.27,76.234-8.385-80.119-8.827-173.835-7.327-265.57,2.289-45.81,4.5-91.292,6.673-134.795,3.962-43.175,7.693-84.331,11.135-121.736-14.943-11.135-1.192,82-16.943,74.561,9.02-202.221,34.828-416.269,96.447-653.2-5.25-7.212-14.078,28.578-22.289,56.887-2.192-5.981,7.308-38.367,12.577-60.906-4.5,3.308-11.443,36.655-17.5,58.964-4.981-3.923,14.847-63.849,20.136-90.869-1.539,18.578,4.327,20.424,10.827,20.982,6.366-23.693,11.751-46.867,18.789-68.868q10.818-32.915,21-63.753,10.558-30.636,20.424-59.137c6.654-18.962,14.789-36.579,21.9-53.714,14.616-34.079,28.636-64.887,41.983-92.177,14.52-26.847,28.463-50.156,41.367-69.83-37.6,71.5-61.945,143.6-88.869,223.433-12,40.463-24.6,82.888-38.29,128.91C235.716,2233.67,222.446,2283.749,206.964,2338.944ZM1019.655,900.763c2.519-2.135-20.039,21.366-42.079,44.56-21.4,23.713-43.252,46.367-42.406,39.54,14.5-13.6,27.444-28.847,40.636-43.752C989.327,926.456,1003.712,912.629,1019.655,900.763ZM242.678,2335.847c2.25,11.77-7.731,21.943-2.5-.981-7.635,8.424-14.6,37.233-22.4,71.715-5.019-33.444-16.116,10.789-27.655,62.907-10.654,52.214-18.385,112.678-25.636,110.063,6.212-26.328,11.6-54.618,16.558-84.273,5.866-29.54,11.943-60.407,18.232-92.139,11.039-63.715,28.521-129.756,47.964-194.547,3.731,20.059-12.9,49.195-4.943,62.907-6.366,21.039-1.75-2.365-4.885-1.923,1.173,10.347-13.712,57-9.616,60.772,8.75-15.731,20.789-75.869,30.328-100.927,3.9,8.308-16.9,72.734-22.9,103.716C242.793,2316.846,240.447,2328.943,242.678,2335.847ZM676.447,1274.8c-28.828,30.771-20.27,36.963-38.367,66.388,10.635-16.289,21.636-33.155,32.867-50.387,11.212-17.212,22.943-34.559,35.886-51.233,25.367-33.694,50.752-67.907,75.927-100,51.925-62.83,99.235-120.063,130.41-157.776,35.079-38.136,32.521-20.713,67.984-58.041-22.443,33.309-79.061,87.908-93.447,96.908-17.962,24.347-46.887,62.984-79,101.985-7.923,9.808-15.962,19.751-23.943,29.6-7.52,10.212-14.962,20.366-22.193,30.194-14.424,19.712-27.867,38.463-38.925,54.752-11.481,23.616,2.981,1,6.789,6.75-9.539,9.577-19.732,19.539-29.5,30.617q-14.366,16.789-29.328,35.732c-19.751,25.482-40.963,53.483-60.791,86.177,15.347-29.809,38.5-87.754,1.4-38.04C612.444,1355.4,677.64,1247.221,676.447,1274.8Zm5735.3,1964.339c6.019,12.4,9.577,35.04,7.539,63.637-1.48,28.617-5.789,63.407-11.25,100.447-10.462-14.424-7.116-43.425-2.077-74.888,2.48-15.751,5.423-32.1,7.212-47.464C6414.285,3265.428,6414.285,3250.966,6411.746,3239.138ZM474.323,1613.007c-.827-.442-7.616,9.308-17.155,26.251-9,17.212-21.52,41.213-35.713,68.407-29.347,54.022-58.83,123.775-83.061,175.8,6.577-33.655,40.867-97.293,55.041-125.313,9.885-21.078,15.674-49.175-4.231-2.75,11.424-37.982,36.713-54.1,69.926-134.775C479.342,1589.6,452.322,1649.143,474.323,1613.007Zm537.813-746.9c14.558-13.116-8.827,11.289-35.309,36.905-13.212,12.77-26.963,26.1-36.79,35.6-9.962,9.27-16.578,14.155-15.635,9.847C949.344,923.976,985.5,888.628,1012.135,866.108ZM6198.121,4225.356c-1.808,12.27-16.481,46.887-35.31,73.734-7.712-2.212.673-22.9-8.328-23.481,11.154-25.578,24.809-34.463,21.1-44.118C6193.621,4189.316,6172.485,4276.243,6198.121,4225.356ZM1247.377,625.135c-15.732,15.328-36.156,33.944-56.849,51.829-20.924,17.655-41.6,35.117-57.541,48.56,4.269-4.25,11.616-11.539,20.616-20.5,9.462-8.423,20.712-18.385,32.175-28.559C1208.952,656.252,1233.415,635.539,1247.377,625.135ZM189.387,3709.506c-10.827-54.791-20.828-72.715-31.328-121.121,12.27-1.654-2.808-35.04-1.808-61.676,11.808,43.944,23.79,91.947,32.559,141.429,8.039,49.695,18.1,99.581,27.386,146.718-4.9-8.635-28.424-83.485-19.482-28.367C188.752,3775.816,179.078,3704.544,189.387,3709.506ZM2312.675,60.956c.6,1.865,18.039-3.192,29.367-5.789-8.039,4.616-32.348,10.327-54.752,17.616-22.405,7.385-43.464,14.5-46,18.366-43.791,11.443,9.212-10.885,13.231-14.616a232.471,232.471,0,0,1,40.021-11.751c10.039-1.9,16.424-2.731,17.924-5.827C2329.1,54.955,2320.791,58.821,2312.675,60.956ZM745.47,1131.754c-11.558,28.174-92.7,137.16-100.62,134.487,14.578-17.232,28.424-34.463,44.348-55.6C704.968,1189.449,722.526,1164.2,745.47,1131.754ZM614.541,1320.244c5.712,1.615-30.1,45.406-39.733,65.888-2.692-8.424,38.233-62,25.79-57.964C616.367,1290.723,600.174,1346.514,614.541,1320.244Zm-252.665,454.1c3.327-.9,12.635-24.771,21.02-40.713-.269,4.423-3.366,14-7.9,25.77-4.077,11.943-9.52,26.117-15.193,39.483-11.308,26.751-23.578,50.291-27.444,46.348,7.346-21.4,33.1-71.888,27.347-72.2C366.875,1757.11,365.2,1766.418,361.875,1774.341ZM1390.133,510.861c17.655-14.385,39.771-30.944,65.022-48.983q19.039-13.414,40.021-28.117c14.27-9.212,29.444-18.366,44.925-27.886C1500.1,432.819,1443.386,473.686,1390.133,510.861Zm707.34,5420.054c10.231.9,20.6,1.27,3.039-6.308,65.2,24.636,141.526,58.061,237.665,89.177-31.1-5.77-63.58-11.981-95.581-18.693C2250.4,5974.051,2136.84,5954.338,2097.473,5930.915ZM124.422,2632.13c-8.923,33.579-10.174,22.809-21.963,57.868,1.5-15.309,3.019-30.809,4.539-46.329,4.327,9.808,7.75-3.27,11.058-13.635C121.48,2619.726,124.057,2611.995,124.422,2632.13ZM99.94,3094.978c-6.6-5.577-3.135-67.984-8.75-78.5,7.4,10.6,6.808-21.674,6.039-59.657.385-38,1.923-81.7,8.539-93.581-1.865,17.058-2.981,35.271-3.769,54.214-.942,18.962-1.289,38.636-.481,58.58C102.383,3015.859,103.037,3056.688,99.94,3094.978Zm185.2-1171.3q-13.154,36.405-26.29,72.792c-2.808-5.481,3.769-27.616,16.424-60.5-.885-3.769-4.212,4.558-7.5,13.231C264.332,1940.041,284.987,1909,285.141,1923.675ZM1405.75,473.878c-59.176,56.56-23.136-.231-115.582,73.311-2.693-7.808,42.059-41.5,42.021-50.752,21.29-16.828,28.405-5.039,40.425-20.982,45.041-30.386-23.751,24.9,15.558-2.731-7.443,10.02-23.27,15.635-37.694,26.367C1359.786,498.61,1366.055,501.226,1405.75,473.878ZM5022.164,5665.518c-58.214,34.886-41.637,46.618-120.717,87.6,46.175-44.137-3.077.289-59.387,28.021,3.52-6.462,21.347-19.539,44.944-34.636,23.116-15.847,51.656-34.443,77.831-50.194,26.078-15.847,49.81-28.9,62.58-34.732,12.539-6.154,14.943-3.942-1.538,11.174A46.453,46.453,0,0,1,5022.164,5665.518ZM246.735,2007.544c-1.442,4.827-4.866,1.077-9.077,3.039-4.039,2-9.75,9.558-12.693,37.79-13.154,32.694,6.193-46.04-4.308-36.386,11.616-30,11.481,1.462,25.174-39.444,5.1-14.231,1.289-12.77.712-16.943,14.77-31.444,24.29-58.522,36.656-86.946,12.443-28.347,25.674-58.7,44.6-97.293,9.808-26.463,16.866-38.5,17.847-37.848.827.539-4.346,13.77-15.732,39.213-24.02,59.272-39.886,93.1-51.6,122.6-11.366,29.674-20.578,54.195-33.213,94.062,2.385.827,8.231-16.847,12.866-28.021C260.063,1966.5,242.908,2005.6,246.735,2007.544ZM94.44,2560.377c3.519,2.4,7,4.481,10.077-13.25-4.308,41.675-10.577,90.792-13.789,140.141-3.712,49.252-10.462,98.293-13.308,139.679-2.866,6.847-2.231-15.5-1.654-32.444,1.039-16.9,2.019-28.367-2.231.231C78.209,2751.924,95.9,2612.668,94.44,2560.377ZM786.3,996.306c1.269,3.654,2.75,7.077,14.462-6.52-13.654,27.77-37.194,35.828-54.022,54.541C717.064,1073.5,765.143,1024.923,786.3,996.306ZM2046.432,107.939c8.827-2.962,24.886-9.039,45.56-17.1,20.77-7.77,45.733-18.751,73.792-27.713C2221.594,44.34,2285.309,20.9,2337.85,7.761c-16.232,5.789-40.521,12.424-67.522,22.116-27.1,9.5-57.5,20.136-87.2,30.521-14.924,5.077-29.617,10.058-43.6,14.828-13.866,5.231-27.021,10.174-39,14.674C2076.568,98.669,2057.221,105.246,2046.432,107.939ZM537.864,2206.438c-4.9,2.135-.615-14.231-3.5-16.366-4.9,8.712-10.347,22.635-15.924,37.886-7.9,37.232,14.347-33.5,15.693-8.154-4.693,18.866-11.462,31.867-15.116,40.5-3.25,8.712-3.769,12.924,3.385,13.943-9.27,47.252-16.635,44.5-24.943,63.541,5,6.154-1.6,18.9-4.135,42.136-2.231,6.808-7.116,17.866-9.712,21.462-2.442,3.577-4.481-.692,2.231-24.02-4.558-7.039-15.385,60.714-5.308,41.636-5.673,19.309-11.289,41.964-17.232,37.636,31.232-168.623,48.483-263.185,111.447-414.384,2.058,1.5-3.577,17.059-6.462,27.463,3.635,3.673,10.212-13.6,13.558-8.443-8.558,15.847-16.5,43.867-23.713,72.023C551.961,2161.743,545.787,2190.129,537.864,2206.438Zm48.079,2377.627c9.616,20.712,10.25,31.521,2.135,33.079-20.732-31.5-12.635-31.04-37.54-67.445-1.5,11.462-1.462,34.136-22.636,10-17.808-32.06-17.251-42.175-42.233-83.081,15.1,10.443,30.463,21.866,40.636,16.6,10.308,17.347,21.116,35.655,30.848,52.137C567.6,4561.391,577.808,4575.123,585.943,4584.065Z" transform="translate(0 -7.761)" fill="#0d1904"/>
    </g>
  </g>
</svg>
